<svg width="60" height="60" viewBox="0 0 60 60" fill="none" xmlns="http://www.w3.org/2000/svg">
    <path fill-rule="evenodd" clip-rule="evenodd" d="M60 0H0V60H60V0ZM24.6622 13C21.0021 13 18.0541 15.9628 18.0541 19.6172C18.0541 23.1728 20.8257 26.0545 24.3226 26.2139C24.5401 26.1991 24.7694 26.1984 24.9871 26.2137C28.4802 26.0526 31.2538 23.173 31.2703 19.6142C31.2686 15.9633 28.3052 13 24.6622 13ZM15.0541 19.6172C15.0541 14.3135 19.3376 10 24.6622 10C29.9663 10 34.2703 14.3113 34.2703 19.6172L34.2703 19.6235C34.2487 24.8105 30.164 29.0418 25.0048 29.2154C24.9381 29.2176 24.8713 29.2154 24.8049 29.2088C24.726 29.2009 24.6028 29.1996 24.4877 29.21C24.4257 29.2157 24.3635 29.2175 24.3013 29.2154C19.1431 29.0418 15.0541 24.8102 15.0541 19.6172ZM36.5556 15.5541C36.5556 14.7256 37.2272 14.0541 38.0556 14.0541C42.1878 14.0541 45.4189 17.5083 45.4189 21.6351C45.4189 25.68 42.3133 29.0605 38.3316 29.2151C38.248 29.2183 38.1642 29.2146 38.0812 29.2039C38.0811 29.2038 38.0789 29.2036 38.0747 29.2034C38.0716 29.2033 38.0673 29.2032 38.0619 29.2032C38.0472 29.2032 38.0291 29.2041 38.0096 29.2064C37.1866 29.3012 36.4425 28.7109 36.3477 27.8879C36.2529 27.065 36.8431 26.3209 37.6661 26.2261C37.8737 26.2022 38.0921 26.1958 38.3099 26.2126C40.5517 26.074 42.4189 24.1228 42.4189 21.6351C42.4189 19.0554 40.4233 17.0541 38.0556 17.0541C37.2272 17.0541 36.5556 16.3825 36.5556 15.5541ZM35 40.5C35 41.8829 34.2077 43.4353 32.3195 44.7641C30.4397 46.0869 27.6845 47 24.5 47C21.3155 47 18.5603 46.0869 16.6805 44.7641C14.7923 43.4353 14 41.8829 14 40.5C14 39.1171 14.7923 37.5647 16.6805 36.2359C18.5603 34.9131 21.3155 34 24.5 34C27.6845 34 30.4397 34.9131 32.3195 36.2359C34.2077 37.5647 35 39.1171 35 40.5ZM38 40.5C38 45.7467 31.9558 50 24.5 50C17.0442 50 11 45.7467 11 40.5C11 35.2533 17.0442 31 24.5 31C31.9558 31 38 35.2533 38 40.5ZM39.4703 33.4813C39.6449 32.6714 40.4429 32.1564 41.2527 32.331C42.7836 32.6609 44.2907 33.2503 45.5658 34.1802C47.4016 35.499 48.4595 37.3615 48.4595 39.3623C48.4595 41.3626 47.4022 43.2246 45.5675 44.5433C44.2769 45.4894 42.7467 46.1032 41.1715 46.417C40.359 46.5789 39.5692 46.0515 39.4073 45.2391C39.2454 44.4266 39.7728 43.6367 40.5853 43.4749C41.805 43.2318 42.9145 42.7695 43.7985 42.1204L43.8121 42.1105C45.0039 41.2556 45.4595 40.2396 45.4595 39.3623C45.4595 38.485 45.0039 37.4691 43.8121 36.6141L43.8016 36.6067L43.8017 36.6066C42.9408 35.9779 41.8465 35.5278 40.6206 35.2636C39.8108 35.0891 39.2958 34.2911 39.4703 33.4813Z" fill="#40FFE4"/>
</svg>
