<svg width="60" height="60" viewBox="0 0 60 60" fill="none" xmlns="http://www.w3.org/2000/svg">
    <path fill-rule="evenodd" clip-rule="evenodd" d="M60 0H0V60H60V0ZM12.5 16.7164C12.5 15.3743 13.56 14.3968 14.8929 14.5089L14.8975 14.5092C18.5629 14.806 24.2489 16.7006 27.3597 18.6405L27.3818 18.654L27.839 18.9282C27.9257 18.9814 28.0144 19.0294 28.1045 19.0725V45.5413C24.3088 43.7142 18.7645 41.9692 14.9788 41.4627L14.9755 41.4623L14.4423 41.3887L14.4232 41.3862C13.3994 41.2582 12.5 40.2322 12.5 39.1909V16.7164ZM31.1045 45.5192C34.9027 43.6941 40.3942 41.9632 44.1603 41.4622L44.1775 41.46L44.7861 41.3862L44.7883 41.3859C45.8112 41.2567 46.7093 40.2314 46.7093 39.1909V16.7351C46.7093 15.3888 45.6451 14.4143 44.2977 14.5275C44.256 14.531 44.214 14.5327 44.1721 14.5327H44.1279V22.9304C44.1279 23.1378 44.0851 23.3388 44.006 23.5229C43.874 23.8296 43.641 24.0893 43.3365 24.2525C42.8491 24.5137 42.2577 24.4856 41.7973 24.1795L41.7973 24.1794L38.907 22.2574L36.0167 24.1795C35.5563 24.4856 34.9648 24.5137 34.4775 24.2525C34.2148 24.1118 34.0054 23.8993 33.8681 23.6467C33.7507 23.4307 33.686 23.1853 33.686 22.9304L33.686 22.9304L33.686 17.6384C32.9517 17.9933 32.2842 18.3544 31.709 18.7097L31.4056 18.906L31.3818 18.9211C31.2914 18.9773 31.1987 19.0276 31.1045 19.0727V45.5192ZM43.9359 11.5379C43.4611 11.5775 42.9319 11.6379 42.3737 11.7404C39.9646 12.1335 37.1489 12.9466 34.6326 13.9455L34.6145 13.9528C32.9456 14.6248 31.3795 15.3854 30.1175 16.1666L30.0921 16.1827L29.8056 16.3681C29.7997 16.3704 29.7875 16.3747 29.7683 16.3795C29.7264 16.39 29.6695 16.3978 29.6047 16.3978C29.5398 16.3978 29.4829 16.39 29.441 16.3795C29.4184 16.3739 29.4055 16.3689 29.4012 16.3671L29.3902 16.3603L28.9359 16.0878C25.4222 13.9005 19.286 11.8553 15.1419 11.5192C12.048 11.2605 9.5 13.6314 9.5 16.7164V39.1909C9.5 41.7182 11.4974 44.0381 14.0407 44.3617L14.5717 44.435L14.5781 44.4358C18.4319 44.9509 24.4878 46.9392 27.8988 48.8047C27.9155 48.8138 27.9324 48.8226 27.9494 48.8311L27.9996 48.8561C28.5152 49.133 29.091 49.235 29.593 49.235C30.0987 49.235 30.6898 49.1313 31.2136 48.8336C34.6222 46.9543 40.6806 44.9532 44.5474 44.4371L45.1528 44.3637L45.1582 44.363C47.7064 44.0445 49.7093 41.7217 49.7093 39.1909V16.7351C49.7093 13.639 47.1647 11.3134 44.1141 11.5327H44.0605C44.0189 11.5327 43.9774 11.5345 43.9359 11.5379ZM41.1279 15.0446C39.693 15.3755 38.1588 15.8344 36.686 16.3731V20.1315L38.0763 19.2069C38.5795 18.8723 39.2344 18.8723 39.7376 19.2069L41.1279 20.1315V15.0446Z" fill="#40FFE4"/>
</svg>

