<svg width="60" height="60" viewBox="0 0 60 60" fill="none" xmlns="http://www.w3.org/2000/svg">
    <path fill-rule="evenodd" clip-rule="evenodd" d="M60 0H0V60H60V0ZM32.5247 14.5505C32.5247 13.1159 31.091 12.132 29.765 12.6346L29.7635 12.6351L14.9612 18.2279L14.961 18.228L14.9606 18.2282C13.4776 18.7896 12.5 20.2052 12.5 21.8029V22.1678C13.9864 20.901 15.9115 20.135 18.01 20.135H32.5247V14.5505ZM12.5 30.3229V28.645C12.5 25.6142 14.9792 23.135 18.01 23.135H34.0155L34.0247 23.135L34.0339 23.135H39.4127C42.4435 23.135 44.9226 25.6142 44.9226 28.645V29.8297H42.6567C42.3485 29.8297 42.0452 29.8556 41.7492 29.9062C40.662 30.0914 39.6739 30.6084 38.9087 31.3885C37.8281 32.451 37.2041 33.9819 37.3574 35.6209C37.6039 38.5195 40.2059 40.4738 42.8785 40.4738H44.9226V41.192C44.9226 44.2228 42.4435 46.702 39.4127 46.702H18.01C14.9792 46.702 12.5 44.2228 12.5 41.192V30.3229ZM47.9226 40.1531V41.192C47.9226 45.8797 44.1003 49.702 39.4127 49.702H18.01C13.3223 49.702 9.5 45.8797 9.5 41.192V30.3229V28.645V21.8029C9.5 18.9637 11.244 16.4269 13.8996 15.4221L13.9002 15.4218L28.7017 9.82932L28.7026 9.82899C31.9998 8.57989 35.5247 11.0263 35.5247 14.5505V20.135H39.4127C44.1003 20.135 47.9226 23.9574 47.9226 28.645V30.1506C49.086 30.6916 49.8969 31.8596 49.8969 33.2315V37.0722C49.8969 38.4442 49.086 39.6121 47.9226 40.1531ZM46.4541 37.4738H46.4971C46.7445 37.4563 46.8969 37.2644 46.8969 37.0722V33.2315C46.8969 33.0393 46.7445 32.8475 46.4971 32.83H42.6548C42.5168 32.83 42.3825 32.8415 42.2527 32.8636C41.779 32.9448 41.3646 33.1681 41.0467 33.4947C41.0418 33.4996 41.0369 33.5046 41.032 33.5095C41.028 33.5136 41.0239 33.5176 41.0198 33.5216C40.5447 33.9854 40.28 34.645 40.3466 35.3449L40.3482 35.3626C40.4418 36.486 41.5287 37.4734 42.8804 37.4734H46.4226L46.4351 37.4735L46.4541 37.4738ZM17.8896 29.5585C17.8896 28.7301 18.5612 28.0585 19.3896 28.0585H32.4401C33.2685 28.0585 33.9401 28.7301 33.9401 29.5585C33.9401 30.3869 33.2685 31.0585 32.4401 31.0585H19.3896C18.5612 31.0585 17.8896 30.3869 17.8896 29.5585Z" fill="#40FFE4"/>
</svg>
