<svg width="60" height="60" viewBox="0 0 60 60" fill="none" xmlns="http://www.w3.org/2000/svg">
    <path fill-rule="evenodd" clip-rule="evenodd" d="M60 0H0V60H60V0ZM43.1665 13.3333C43.1665 12.5049 42.4949 11.8333 41.6665 11.8333C40.8381 11.8333 40.1665 12.5049 40.1665 13.3333V21.6667C40.1665 22.4951 40.8381 23.1667 41.6665 23.1667C42.4949 23.1667 43.1665 22.4951 43.1665 21.6667V13.3333ZM41.6665 26.8333H45.0002C45.8286 26.8333 46.5002 27.5049 46.5002 28.3333C46.5002 29.1618 45.8286 29.8333 45.0002 29.8333H43.1665V46.6667C43.1665 47.4951 42.4949 48.1667 41.6665 48.1667C40.8381 48.1667 40.1665 47.4951 40.1665 46.6667V29.8333H38.3335C37.5051 29.8333 36.8335 29.1618 36.8335 28.3333C36.8335 27.5049 37.5051 26.8333 38.3335 26.8333H41.6665ZM30 36.8333C30.8284 36.8333 31.5 37.5049 31.5 38.3333V46.6667C31.5 47.4951 30.8284 48.1667 30 48.1667C29.1716 48.1667 28.5 47.4951 28.5 46.6667V38.3333C28.5 37.5049 29.1716 36.8333 30 36.8333ZM31.5 13.3333C31.5 12.5049 30.8284 11.8333 30 11.8333C29.1716 11.8333 28.5 12.5049 28.5 13.3333V30.1667H26.6665C25.8381 30.1667 25.1665 30.8382 25.1665 31.6667C25.1665 32.4951 25.8381 33.1667 26.6665 33.1667H29.992L30 33.1667L30.008 33.1667H33.3332C34.1616 33.1667 34.8332 32.4951 34.8332 31.6667C34.8332 30.8382 34.1616 30.1667 33.3332 30.1667H31.5V13.3333ZM21.6667 26.8333H18.3335H15C14.1716 26.8333 13.5 27.5049 13.5 28.3333C13.5 29.1618 14.1716 29.8333 15 29.8333H16.8335V46.6667C16.8335 47.4951 17.5051 48.1667 18.3335 48.1667C19.1619 48.1667 19.8335 47.4951 19.8335 46.6667V29.8333H21.6667C22.4951 29.8333 23.1667 29.1618 23.1667 28.3333C23.1667 27.5049 22.4951 26.8333 21.6667 26.8333ZM19.8335 13.3333C19.8335 12.5049 19.1619 11.8333 18.3335 11.8333C17.5051 11.8333 16.8335 12.5049 16.8335 13.3333V21.6667C16.8335 22.4951 17.5051 23.1667 18.3335 23.1667C19.1619 23.1667 19.8335 22.4951 19.8335 21.6667V13.3333Z" fill="#40FFE4"/>
</svg>
