<svg width="1734" height="1320" viewBox="0 0 1734 1320" fill="none" xmlns="http://www.w3.org/2000/svg">
<g clip-path="url(#clip0_2287_4602)">
<path d="M967.9 647.101L978.328 594.243L966.858 606.929L944.776 672.093L934.348 724.951L945.817 712.265L967.9 647.101Z" stroke="url(#paint0_linear_2287_4602)" stroke-miterlimit="10"/>
<path d="M968.522 647.034L980.326 590.667L968.145 603.238L943.981 672.256L932.177 728.623L944.537 715.971L968.522 647.034Z" stroke="url(#paint1_linear_2287_4602)" stroke-miterlimit="10"/>
<path d="M969.143 646.963L982.408 586.822L969.514 599.273L943.361 672.327L930.096 732.468L942.99 720.017L969.143 646.963Z" stroke="url(#paint2_linear_2287_4602)" stroke-miterlimit="10"/>
<path d="M969.852 647.075L984.749 582.608L971.057 595.211L942.646 672.199L927.927 736.584L941.441 724.064L969.852 647.075Z" stroke="url(#paint3_linear_2287_4602)" stroke-miterlimit="10"/>
<path d="M970.658 647.391L987.183 578.565L972.688 590.86L941.846 671.9L925.321 740.727L939.816 728.431L970.658 647.391Z" stroke="url(#paint4_linear_2287_4602)" stroke-miterlimit="10"/>
<path d="M971.64 647.622L989.701 574.251L974.673 586.344L941.043 671.589L922.804 745.041L938.01 732.866L971.64 647.622Z" stroke="url(#paint5_linear_2287_4602)" stroke-miterlimit="10"/>
<path d="M972.44 647.928L992.658 569.91L976.56 581.587L940.242 671.282L919.846 749.382L935.945 737.705L972.44 647.928Z" stroke="url(#paint6_linear_2287_4602)" stroke-miterlimit="10"/>
<path d="M973.153 648.506L995.7 565.3L978.708 576.473L939.347 670.771L916.978 753.895L933.969 742.721L973.153 648.506Z" stroke="url(#paint7_linear_2287_4602)" stroke-miterlimit="10"/>
<path d="M974.047 649.018L998.743 560.687L981.036 571.274L938.456 670.274L913.761 758.605L931.645 747.935L974.047 649.018Z" stroke="url(#paint8_linear_2287_4602)" stroke-miterlimit="10"/>
<path d="M975.032 649.715L1002.14 555.878L983.446 565.768L937.651 669.495L910.37 763.415L929.06 753.525L975.032 649.715Z" stroke="url(#paint9_linear_2287_4602)" stroke-miterlimit="10"/>
<path d="M975.928 650.689L1005.79 551.161L986.206 560.075L936.576 668.601L906.71 768.13L926.297 759.215L975.928 650.689Z" stroke="url(#paint10_linear_2287_4602)" stroke-miterlimit="10"/>
<path d="M976.832 651.677L1009.55 546.28L989.062 554.207L935.673 667.615L902.952 773.012L923.443 765.084L976.832 651.677Z" stroke="url(#paint11_linear_2287_4602)" stroke-miterlimit="10"/>
<path d="M977.919 653.05L1013.76 541.415L992.178 547.969L934.586 666.24L898.749 777.875L920.504 771.238L977.919 653.05Z" stroke="url(#paint12_linear_2287_4602)" stroke-miterlimit="10"/>
<path d="M978.826 654.502L1018.13 536.456L995.468 541.635L933.675 664.776L894.546 782.739L917.033 777.643L978.826 654.502Z" stroke="url(#paint13_linear_2287_4602)" stroke-miterlimit="10"/>
<path d="M979.829 656.162L1022.6 531.709L999.024 534.959L932.675 663.13L889.991 787.776L913.48 784.333L979.829 656.162Z" stroke="url(#paint14_linear_2287_4602)" stroke-miterlimit="10"/>
<path d="M981.01 658.195L1027.6 526.67L1002.93 528.072L931.665 660.999L885.076 792.523L909.748 791.122L981.01 658.195Z" stroke="url(#paint15_linear_2287_4602)" stroke-miterlimit="10"/>
<path d="M982.019 660.329L1032.69 521.826L1007.01 521.101L930.662 658.879L879.814 797.465L905.493 798.19L982.019 660.329Z" stroke="url(#paint16_linear_2287_4602)" stroke-miterlimit="10"/>
<path d="M983.033 662.929L1037.96 516.908L1011.36 513.777L929.472 656.364L874.55 802.385L901.15 805.516L983.033 662.929Z" stroke="url(#paint17_linear_2287_4602)" stroke-miterlimit="10"/>
<path d="M984.141 665.715L1043.76 512.181L1016.05 506.254L928.548 653.473L868.754 807.09L896.55 813.211L984.141 665.715Z" stroke="url(#paint18_linear_2287_4602)" stroke-miterlimit="10"/>
<path d="M984.977 668.878L1049.82 507.575L1021 498.377L927.523 650.4L862.858 811.62L891.496 820.9L984.977 668.878Z" stroke="url(#paint19_linear_2287_4602)" stroke-miterlimit="10"/>
<path d="M986.092 672.625L1056.24 503.242L1026.4 490.49L926.407 646.652L856.436 815.953L886.098 828.787L986.092 672.625Z" stroke="url(#paint20_linear_2287_4602)" stroke-miterlimit="10"/>
<path d="M987.031 676.459L1062.93 499.027L1032.06 482.247L925.468 642.815L849.745 820.164L880.615 836.944L987.031 676.459Z" stroke="url(#paint21_linear_2287_4602)" stroke-miterlimit="10"/>
<path d="M988.072 680.973L1069.81 495.207L1038.08 473.838L924.433 638.318L842.698 824.085L874.606 845.37L988.072 680.973Z" stroke="url(#paint22_linear_2287_4602)" stroke-miterlimit="10"/>
<path d="M989.113 685.961L1077.3 491.76L1044.53 465.402L923.391 633.33L835.204 827.531L868.154 853.805L989.113 685.961Z" stroke="url(#paint23_linear_2287_4602)" stroke-miterlimit="10"/>
<path d="M990.068 691.229L1085.15 488.61L1051.33 456.785L922.61 627.966L827.528 830.584L861.349 862.41L990.068 691.229Z" stroke="url(#paint24_linear_2287_4602)" stroke-miterlimit="10"/>
<path d="M990.946 697.273L1093.18 485.838L1058.57 448.169L921.734 621.935L819.324 833.454L853.93 871.123L990.946 697.273Z" stroke="url(#paint25_linear_2287_4602)" stroke-miterlimit="10"/>
<path d="M991.742 704.064L1101.75 483.754L1066.17 439.37L920.758 615.213L810.929 835.439L846.333 879.907L991.742 704.064Z" stroke="url(#paint26_linear_2287_4602)" stroke-miterlimit="10"/>
<path d="M992.368 711.435L1110.59 482.245L1074.38 430.49L920.132 607.841L802.09 836.948L838.12 888.786L992.368 711.435Z" stroke="url(#paint27_linear_2287_4602)" stroke-miterlimit="10"/>
<path d="M993.094 719.502L1119.79 481.511L1082.86 421.697L919.411 599.791L792.718 837.783L829.647 897.596L993.094 719.502Z" stroke="url(#paint28_linear_2287_4602)" stroke-miterlimit="10"/>
<path d="M993.736 728.337L1129.34 481.53L1092.04 412.992L918.944 590.87L783.16 837.761L820.465 906.299L993.736 728.337Z" stroke="url(#paint29_linear_2287_4602)" stroke-miterlimit="10"/>
<path d="M994.122 738.034L1139.44 482.719L1101.66 404.288L918.558 581.173L773.061 836.572L810.843 915.002L994.122 738.034Z" stroke="url(#paint30_linear_2287_4602)" stroke-miterlimit="10"/>
<path d="M994.239 748.685L1149.86 484.514L1111.78 395.516L918.265 570.605L762.825 834.692L800.723 923.774L994.239 748.685Z" stroke="url(#paint31_linear_2287_4602)" stroke-miterlimit="10"/>
<path d="M994.356 760.382L1160.52 487.771L1122.5 386.985L918.143 558.895L751.979 831.506L790.174 932.207L994.356 760.382Z" stroke="url(#paint32_linear_2287_4602)" stroke-miterlimit="10"/>
<path d="M994.31 773.213L1171.63 492.026L1133.57 378.699L918.194 546.08L741.051 827.182L778.93 940.594L994.31 773.213Z" stroke="url(#paint33_linear_2287_4602)" stroke-miterlimit="10"/>
<path d="M993.914 787.269L1183.09 498.012L1145.43 370.63L918.591 532.024L729.592 821.196L767.074 948.662L993.914 787.269Z" stroke="url(#paint34_linear_2287_4602)" stroke-miterlimit="10"/>
<path d="M993.347 802.481L1194.9 505.769L1157.72 362.977L919.158 516.81L717.601 813.522L754.784 956.315L993.347 802.481Z" stroke="url(#paint35_linear_2287_4602)" stroke-miterlimit="10"/>
<path d="M992.52 819.178L1207.06 515.302L1170.71 355.813L919.985 500.115L705.618 803.906L741.798 963.48L992.52 819.178Z" stroke="url(#paint36_linear_2287_4602)" stroke-miterlimit="10"/>
<path d="M991.43 837.395L1219.57 527.114L1184.3 349.408L921.075 481.898L693.116 792.094L728.206 969.885L991.43 837.395Z" stroke="url(#paint37_linear_2287_4602)" stroke-miterlimit="10"/>
<path d="M990.207 855.941L1232.59 542.045L1198.72 345.707L922.474 463.266L679.917 777.248L713.783 973.586L990.207 855.941Z" stroke="url(#paint38_linear_2287_4602)" stroke-miterlimit="10"/>
<path d="M988.507 875.797L1246.2 559.507L1213.86 343.4L923.997 443.496L666.481 759.699L698.648 975.893L988.507 875.797Z" stroke="url(#paint39_linear_2287_4602)" stroke-miterlimit="10"/>
<path d="M986.384 896.94L1259.88 579.725L1229.83 342.382L926.118 422.339L652.623 739.554L682.844 976.812L986.384 896.94Z" stroke="url(#paint40_linear_2287_4602)" stroke-miterlimit="10"/>
<path d="M984.021 919.739L1274.17 602.917L1246.49 342.775L928.655 399.454L638.505 716.276L666.188 976.418L984.021 919.739Z" stroke="url(#paint41_linear_2287_4602)" stroke-miterlimit="10"/>
<path d="M980.975 944.163L1288.46 629.106L1263.65 344.63L931.529 375.127L624.22 690.1L648.855 974.661L980.975 944.163Z" stroke="url(#paint42_linear_2287_4602)" stroke-miterlimit="10"/>
<path d="M977.504 970.285L1303.01 658.829L1281.85 348.14L935.172 348.907L609.662 660.363L630.828 971.052L977.504 970.285Z" stroke="url(#paint43_linear_2287_4602)" stroke-miterlimit="10"/>
<path d="M973.263 998.281L1317.76 692.36L1300.66 353.768L939.243 321.013L594.921 626.85L611.843 965.526L973.263 998.281Z" stroke="url(#paint44_linear_2287_4602)" stroke-miterlimit="10"/>
<path d="M968.506 1028.19L1332.43 729.982L1320.27 361.389L943.994 291.086L580.065 589.293L592.409 957.803L968.506 1028.19Z" stroke="url(#paint45_linear_2287_4602)" stroke-miterlimit="10"/>
<path d="M963.063 1060.12L1347.41 771.991L1340.51 371.562L949.442 259.176L565.099 547.301L571.997 947.73L963.063 1060.12Z" stroke="url(#paint46_linear_2287_4602)" stroke-miterlimit="10"/>
<path d="M956.744 1094.1L1362.23 818.754L1361.56 384.147L955.76 225.189L550.453 500.453L550.948 935.144L956.744 1094.1Z" stroke="url(#paint47_linear_2287_4602)" stroke-miterlimit="10"/>
<path d="M949.731 1130.47L1376.83 870.488L1383.35 399.896L962.772 188.819L535.673 448.803L529.149 919.396L949.731 1130.47Z" stroke="url(#paint48_linear_2287_4602)" stroke-miterlimit="10"/>
<path d="M941.655 1168.94L1391.3 927.808L1405.81 418.551L970.848 150.347L521.383 391.401L506.697 900.741L941.655 1168.94Z" stroke="url(#paint49_linear_2287_4602)" stroke-miterlimit="10"/>
<path d="M932.515 1209.92L1405.29 991.26L1429.12 440.945L979.989 109.371L507.211 328.032L483.385 878.347L932.515 1209.92Z" stroke="url(#paint50_linear_2287_4602)" stroke-miterlimit="10"/>
</g>
<defs>
<linearGradient id="paint0_linear_2287_4602" x1="978.328" y1="594.243" x2="1011.24" y2="701.318" gradientUnits="userSpaceOnUse">
<stop stop-color="#4ABDCC" stop-opacity="0.1"/>
<stop offset="0.203125" stop-color="#2CEBC7"/>
<stop offset="0.734375" stop-color="#6B8AD1" stop-opacity="0.1"/>
<stop offset="1" stop-color="#8267D5"/>
</linearGradient>
<linearGradient id="paint1_linear_2287_4602" x1="980.326" y1="590.667" x2="1015.22" y2="702.773" gradientUnits="userSpaceOnUse">
<stop stop-color="#4ABDCC" stop-opacity="0.1"/>
<stop offset="0.203125" stop-color="#2CEBC7"/>
<stop offset="0.734375" stop-color="#6B8AD1" stop-opacity="0.1"/>
<stop offset="1" stop-color="#8267D5"/>
</linearGradient>
<linearGradient id="paint2_linear_2287_4602" x1="982.408" y1="586.822" x2="1019.37" y2="704.398" gradientUnits="userSpaceOnUse">
<stop stop-color="#4ABDCC" stop-opacity="0.1"/>
<stop offset="0.203125" stop-color="#2CEBC7"/>
<stop offset="0.734375" stop-color="#6B8AD1" stop-opacity="0.1"/>
<stop offset="1" stop-color="#8267D5"/>
</linearGradient>
<linearGradient id="paint3_linear_2287_4602" x1="984.749" y1="582.608" x2="1023.95" y2="706.108" gradientUnits="userSpaceOnUse">
<stop stop-color="#4ABDCC" stop-opacity="0.1"/>
<stop offset="0.203125" stop-color="#2CEBC7"/>
<stop offset="0.734375" stop-color="#6B8AD1" stop-opacity="0.1"/>
<stop offset="1" stop-color="#8267D5"/>
</linearGradient>
<linearGradient id="paint4_linear_2287_4602" x1="987.183" y1="578.565" x2="1028.6" y2="707.561" gradientUnits="userSpaceOnUse">
<stop stop-color="#4ABDCC" stop-opacity="0.1"/>
<stop offset="0.203125" stop-color="#2CEBC7"/>
<stop offset="0.734375" stop-color="#6B8AD1" stop-opacity="0.1"/>
<stop offset="1" stop-color="#8267D5"/>
</linearGradient>
<linearGradient id="paint5_linear_2287_4602" x1="989.701" y1="574.251" x2="1033.43" y2="709.185" gradientUnits="userSpaceOnUse">
<stop stop-color="#4ABDCC" stop-opacity="0.1"/>
<stop offset="0.203125" stop-color="#2CEBC7"/>
<stop offset="0.734375" stop-color="#6B8AD1" stop-opacity="0.1"/>
<stop offset="1" stop-color="#8267D5"/>
</linearGradient>
<linearGradient id="paint6_linear_2287_4602" x1="992.658" y1="569.91" x2="1038.75" y2="710.362" gradientUnits="userSpaceOnUse">
<stop stop-color="#4ABDCC" stop-opacity="0.1"/>
<stop offset="0.203125" stop-color="#2CEBC7"/>
<stop offset="0.734375" stop-color="#6B8AD1" stop-opacity="0.1"/>
<stop offset="1" stop-color="#8267D5"/>
</linearGradient>
<linearGradient id="paint7_linear_2287_4602" x1="995.7" y1="565.3" x2="1044.23" y2="711.71" gradientUnits="userSpaceOnUse">
<stop stop-color="#4ABDCC" stop-opacity="0.1"/>
<stop offset="0.203125" stop-color="#2CEBC7"/>
<stop offset="0.734375" stop-color="#6B8AD1" stop-opacity="0.1"/>
<stop offset="1" stop-color="#8267D5"/>
</linearGradient>
<linearGradient id="paint8_linear_2287_4602" x1="998.743" y1="560.687" x2="1049.77" y2="713.064" gradientUnits="userSpaceOnUse">
<stop stop-color="#4ABDCC" stop-opacity="0.1"/>
<stop offset="0.203125" stop-color="#2CEBC7"/>
<stop offset="0.734375" stop-color="#6B8AD1" stop-opacity="0.1"/>
<stop offset="1" stop-color="#8267D5"/>
</linearGradient>
<linearGradient id="paint9_linear_2287_4602" x1="1002.14" y1="555.878" x2="1055.72" y2="714.233" gradientUnits="userSpaceOnUse">
<stop stop-color="#4ABDCC" stop-opacity="0.1"/>
<stop offset="0.203125" stop-color="#2CEBC7"/>
<stop offset="0.734375" stop-color="#6B8AD1" stop-opacity="0.1"/>
<stop offset="1" stop-color="#8267D5"/>
</linearGradient>
<linearGradient id="paint10_linear_2287_4602" x1="1005.7" y1="550.968" x2="1061.88" y2="715.308" gradientUnits="userSpaceOnUse">
<stop stop-color="#4ABDCC" stop-opacity="0.1"/>
<stop offset="0.203125" stop-color="#2CEBC7"/>
<stop offset="0.734375" stop-color="#6B8AD1" stop-opacity="0.1"/>
<stop offset="1" stop-color="#8267D5"/>
</linearGradient>
<linearGradient id="paint11_linear_2287_4602" x1="1008.91" y1="544.93" x2="1068.23" y2="717.905" gradientUnits="userSpaceOnUse">
<stop stop-color="#4ABDCC" stop-opacity="0.1"/>
<stop offset="0.203125" stop-color="#2CEBC7"/>
<stop offset="0.734375" stop-color="#6B8AD1" stop-opacity="0.1"/>
<stop offset="1" stop-color="#8267D5"/>
</linearGradient>
<linearGradient id="paint12_linear_2287_4602" x1="1012.38" y1="538.521" x2="1075.02" y2="720.591" gradientUnits="userSpaceOnUse">
<stop stop-color="#4ABDCC" stop-opacity="0.1"/>
<stop offset="0.203125" stop-color="#2CEBC7"/>
<stop offset="0.734375" stop-color="#6B8AD1" stop-opacity="0.1"/>
<stop offset="1" stop-color="#8267D5"/>
</linearGradient>
<linearGradient id="paint13_linear_2287_4602" x1="1016.02" y1="532.016" x2="1082.02" y2="723.184" gradientUnits="userSpaceOnUse">
<stop stop-color="#4ABDCC" stop-opacity="0.1"/>
<stop offset="0.203125" stop-color="#2CEBC7"/>
<stop offset="0.734375" stop-color="#6B8AD1" stop-opacity="0.1"/>
<stop offset="1" stop-color="#8267D5"/>
</linearGradient>
<linearGradient id="paint14_linear_2287_4602" x1="1019.57" y1="525.335" x2="1089.06" y2="726.051" gradientUnits="userSpaceOnUse">
<stop stop-color="#4ABDCC" stop-opacity="0.1"/>
<stop offset="0.203125" stop-color="#2CEBC7"/>
<stop offset="0.734375" stop-color="#6B8AD1" stop-opacity="0.1"/>
<stop offset="1" stop-color="#8267D5"/>
</linearGradient>
<linearGradient id="paint15_linear_2287_4602" x1="1023.65" y1="518.359" x2="1096.74" y2="728.641" gradientUnits="userSpaceOnUse">
<stop stop-color="#4ABDCC" stop-opacity="0.1"/>
<stop offset="0.203125" stop-color="#2CEBC7"/>
<stop offset="0.734375" stop-color="#6B8AD1" stop-opacity="0.1"/>
<stop offset="1" stop-color="#8267D5"/>
</linearGradient>
<linearGradient id="paint16_linear_2287_4602" x1="1027.72" y1="511.381" x2="1104.46" y2="731.237" gradientUnits="userSpaceOnUse">
<stop stop-color="#4ABDCC" stop-opacity="0.1"/>
<stop offset="0.203125" stop-color="#2CEBC7"/>
<stop offset="0.734375" stop-color="#6B8AD1" stop-opacity="0.1"/>
<stop offset="1" stop-color="#8267D5"/>
</linearGradient>
<linearGradient id="paint17_linear_2287_4602" x1="1031.89" y1="504.135" x2="1112.38" y2="734.01" gradientUnits="userSpaceOnUse">
<stop stop-color="#4ABDCC" stop-opacity="0.1"/>
<stop offset="0.203125" stop-color="#2CEBC7"/>
<stop offset="0.734375" stop-color="#6B8AD1" stop-opacity="0.1"/>
<stop offset="1" stop-color="#8267D5"/>
</linearGradient>
<linearGradient id="paint18_linear_2287_4602" x1="1036.41" y1="496.689" x2="1120.79" y2="736.822" gradientUnits="userSpaceOnUse">
<stop stop-color="#4ABDCC" stop-opacity="0.1"/>
<stop offset="0.203125" stop-color="#2CEBC7"/>
<stop offset="0.734375" stop-color="#6B8AD1" stop-opacity="0.1"/>
<stop offset="1" stop-color="#8267D5"/>
</linearGradient>
<linearGradient id="paint19_linear_2287_4602" x1="1041" y1="488.973" x2="1129.3" y2="739.366" gradientUnits="userSpaceOnUse">
<stop stop-color="#4ABDCC" stop-opacity="0.1"/>
<stop offset="0.203125" stop-color="#2CEBC7"/>
<stop offset="0.734375" stop-color="#6B8AD1" stop-opacity="0.1"/>
<stop offset="1" stop-color="#8267D5"/>
</linearGradient>
<linearGradient id="paint20_linear_2287_4602" x1="1045.86" y1="481.329" x2="1138.11" y2="741.773" gradientUnits="userSpaceOnUse">
<stop stop-color="#4ABDCC" stop-opacity="0.1"/>
<stop offset="0.203125" stop-color="#2CEBC7"/>
<stop offset="0.734375" stop-color="#6B8AD1" stop-opacity="0.1"/>
<stop offset="1" stop-color="#8267D5"/>
</linearGradient>
<linearGradient id="paint21_linear_2287_4602" x1="1050.81" y1="473.413" x2="1147.14" y2="744.358" gradientUnits="userSpaceOnUse">
<stop stop-color="#4ABDCC" stop-opacity="0.1"/>
<stop offset="0.203125" stop-color="#2CEBC7"/>
<stop offset="0.734375" stop-color="#6B8AD1" stop-opacity="0.1"/>
<stop offset="1" stop-color="#8267D5"/>
</linearGradient>
<linearGradient id="paint22_linear_2287_4602" x1="1055.76" y1="465.499" x2="1156.19" y2="746.948" gradientUnits="userSpaceOnUse">
<stop stop-color="#4ABDCC" stop-opacity="0.1"/>
<stop offset="0.203125" stop-color="#2CEBC7"/>
<stop offset="0.734375" stop-color="#6B8AD1" stop-opacity="0.1"/>
<stop offset="1" stop-color="#8267D5"/>
</linearGradient>
<linearGradient id="paint23_linear_2287_4602" x1="1061.15" y1="457.557" x2="1165.64" y2="749.079" gradientUnits="userSpaceOnUse">
<stop stop-color="#4ABDCC" stop-opacity="0.1"/>
<stop offset="0.203125" stop-color="#2CEBC7"/>
<stop offset="0.734375" stop-color="#6B8AD1" stop-opacity="0.1"/>
<stop offset="1" stop-color="#8267D5"/>
</linearGradient>
<linearGradient id="paint24_linear_2287_4602" x1="1066.71" y1="449.518" x2="1175.29" y2="751.116" gradientUnits="userSpaceOnUse">
<stop stop-color="#4ABDCC" stop-opacity="0.1"/>
<stop offset="0.203125" stop-color="#2CEBC7"/>
<stop offset="0.734375" stop-color="#6B8AD1" stop-opacity="0.1"/>
<stop offset="1" stop-color="#8267D5"/>
</linearGradient>
<linearGradient id="paint25_linear_2287_4602" x1="1072.36" y1="441.648" x2="1184.97" y2="752.885" gradientUnits="userSpaceOnUse">
<stop stop-color="#4ABDCC" stop-opacity="0.1"/>
<stop offset="0.203125" stop-color="#2CEBC7"/>
<stop offset="0.734375" stop-color="#6B8AD1" stop-opacity="0.1"/>
<stop offset="1" stop-color="#8267D5"/>
</linearGradient>
<linearGradient id="paint26_linear_2287_4602" x1="1078.18" y1="433.68" x2="1194.81" y2="754.556" gradientUnits="userSpaceOnUse">
<stop stop-color="#4ABDCC" stop-opacity="0.1"/>
<stop offset="0.203125" stop-color="#2CEBC7"/>
<stop offset="0.734375" stop-color="#6B8AD1" stop-opacity="0.1"/>
<stop offset="1" stop-color="#8267D5"/>
</linearGradient>
<linearGradient id="paint27_linear_2287_4602" x1="1084.09" y1="425.884" x2="1204.65" y2="755.956" gradientUnits="userSpaceOnUse">
<stop stop-color="#4ABDCC" stop-opacity="0.1"/>
<stop offset="0.203125" stop-color="#2CEBC7"/>
<stop offset="0.734375" stop-color="#6B8AD1" stop-opacity="0.1"/>
<stop offset="1" stop-color="#8267D5"/>
</linearGradient>
<linearGradient id="paint28_linear_2287_4602" x1="1090.1" y1="418.26" x2="1214.49" y2="757.088" gradientUnits="userSpaceOnUse">
<stop stop-color="#4ABDCC" stop-opacity="0.1"/>
<stop offset="0.203125" stop-color="#2CEBC7"/>
<stop offset="0.734375" stop-color="#6B8AD1" stop-opacity="0.1"/>
<stop offset="1" stop-color="#8267D5"/>
</linearGradient>
<linearGradient id="paint29_linear_2287_4602" x1="1096.28" y1="410.978" x2="1224.27" y2="757.668" gradientUnits="userSpaceOnUse">
<stop stop-color="#4ABDCC" stop-opacity="0.1"/>
<stop offset="0.203125" stop-color="#2CEBC7"/>
<stop offset="0.734375" stop-color="#6B8AD1" stop-opacity="0.1"/>
<stop offset="1" stop-color="#8267D5"/>
</linearGradient>
<linearGradient id="paint30_linear_2287_4602" x1="1102.54" y1="403.868" x2="1234.02" y2="757.975" gradientUnits="userSpaceOnUse">
<stop stop-color="#4ABDCC" stop-opacity="0.1"/>
<stop offset="0.203125" stop-color="#2CEBC7"/>
<stop offset="0.734375" stop-color="#6B8AD1" stop-opacity="0.1"/>
<stop offset="1" stop-color="#8267D5"/>
</linearGradient>
<linearGradient id="paint31_linear_2287_4602" x1="1111.78" y1="395.516" x2="1247.15" y2="756.257" gradientUnits="userSpaceOnUse">
<stop stop-color="#4ABDCC" stop-opacity="0.1"/>
<stop offset="0.203125" stop-color="#2CEBC7"/>
<stop offset="0.734375" stop-color="#6B8AD1" stop-opacity="0.1"/>
<stop offset="1" stop-color="#8267D5"/>
</linearGradient>
<linearGradient id="paint32_linear_2287_4602" x1="1122.5" y1="386.985" x2="1261.61" y2="753.061" gradientUnits="userSpaceOnUse">
<stop stop-color="#4ABDCC" stop-opacity="0.1"/>
<stop offset="0.203125" stop-color="#2CEBC7"/>
<stop offset="0.734375" stop-color="#6B8AD1" stop-opacity="0.1"/>
<stop offset="1" stop-color="#8267D5"/>
</linearGradient>
<linearGradient id="paint33_linear_2287_4602" x1="1133.57" y1="378.699" x2="1276.18" y2="749.216" gradientUnits="userSpaceOnUse">
<stop stop-color="#4ABDCC" stop-opacity="0.1"/>
<stop offset="0.203125" stop-color="#2CEBC7"/>
<stop offset="0.734375" stop-color="#6B8AD1" stop-opacity="0.1"/>
<stop offset="1" stop-color="#8267D5"/>
</linearGradient>
<linearGradient id="paint34_linear_2287_4602" x1="1145.43" y1="370.63" x2="1291.16" y2="744.25" gradientUnits="userSpaceOnUse">
<stop stop-color="#4ABDCC" stop-opacity="0.1"/>
<stop offset="0.203125" stop-color="#2CEBC7"/>
<stop offset="0.734375" stop-color="#6B8AD1" stop-opacity="0.1"/>
<stop offset="1" stop-color="#8267D5"/>
</linearGradient>
<linearGradient id="paint35_linear_2287_4602" x1="1157.72" y1="362.977" x2="1306.12" y2="738.347" gradientUnits="userSpaceOnUse">
<stop stop-color="#4ABDCC" stop-opacity="0.1"/>
<stop offset="0.203125" stop-color="#2CEBC7"/>
<stop offset="0.734375" stop-color="#6B8AD1" stop-opacity="0.1"/>
<stop offset="1" stop-color="#8267D5"/>
</linearGradient>
<linearGradient id="paint36_linear_2287_4602" x1="1170.71" y1="355.813" x2="1321.21" y2="731.136" gradientUnits="userSpaceOnUse">
<stop stop-color="#4ABDCC" stop-opacity="0.1"/>
<stop offset="0.203125" stop-color="#2CEBC7"/>
<stop offset="0.734375" stop-color="#6B8AD1" stop-opacity="0.1"/>
<stop offset="1" stop-color="#8267D5"/>
</linearGradient>
<linearGradient id="paint37_linear_2287_4602" x1="1184.3" y1="349.408" x2="1336.14" y2="722.427" gradientUnits="userSpaceOnUse">
<stop stop-color="#4ABDCC" stop-opacity="0.1"/>
<stop offset="0.203125" stop-color="#2CEBC7"/>
<stop offset="0.734375" stop-color="#6B8AD1" stop-opacity="0.1"/>
<stop offset="1" stop-color="#8267D5"/>
</linearGradient>
<linearGradient id="paint38_linear_2287_4602" x1="1192.36" y1="331.743" x2="1353.87" y2="731.556" gradientUnits="userSpaceOnUse">
<stop stop-color="#4ABDCC" stop-opacity="0.1"/>
<stop offset="0.203125" stop-color="#2CEBC7"/>
<stop offset="0.734375" stop-color="#6B8AD1" stop-opacity="0.1"/>
<stop offset="1" stop-color="#8267D5"/>
</linearGradient>
<linearGradient id="paint39_linear_2287_4602" x1="1198.65" y1="310.2" x2="1372.55" y2="746.64" gradientUnits="userSpaceOnUse">
<stop stop-color="#4ABDCC" stop-opacity="0.1"/>
<stop offset="0.203125" stop-color="#2CEBC7"/>
<stop offset="0.734375" stop-color="#6B8AD1" stop-opacity="0.1"/>
<stop offset="1" stop-color="#8267D5"/>
</linearGradient>
<linearGradient id="paint40_linear_2287_4602" x1="1204.67" y1="287.701" x2="1391.41" y2="762.978" gradientUnits="userSpaceOnUse">
<stop stop-color="#4ABDCC" stop-opacity="0.1"/>
<stop offset="0.203125" stop-color="#2CEBC7"/>
<stop offset="0.734375" stop-color="#6B8AD1" stop-opacity="0.1"/>
<stop offset="1" stop-color="#8267D5"/>
</linearGradient>
<linearGradient id="paint41_linear_2287_4602" x1="1210.07" y1="263.999" x2="1410.31" y2="781.209" gradientUnits="userSpaceOnUse">
<stop stop-color="#4ABDCC" stop-opacity="0.1"/>
<stop offset="0.203125" stop-color="#2CEBC7"/>
<stop offset="0.734375" stop-color="#6B8AD1" stop-opacity="0.1"/>
<stop offset="1" stop-color="#8267D5"/>
</linearGradient>
<linearGradient id="paint42_linear_2287_4602" x1="1214.76" y1="239.365" x2="1428.95" y2="801.147" gradientUnits="userSpaceOnUse">
<stop stop-color="#4ABDCC" stop-opacity="0.1"/>
<stop offset="0.203125" stop-color="#2CEBC7"/>
<stop offset="0.734375" stop-color="#6B8AD1" stop-opacity="0.1"/>
<stop offset="1" stop-color="#8267D5"/>
</linearGradient>
<linearGradient id="paint43_linear_2287_4602" x1="1218.99" y1="213.431" x2="1447.66" y2="822.862" gradientUnits="userSpaceOnUse">
<stop stop-color="#4ABDCC" stop-opacity="0.1"/>
<stop offset="0.203125" stop-color="#2CEBC7"/>
<stop offset="0.734375" stop-color="#6B8AD1" stop-opacity="0.1"/>
<stop offset="1" stop-color="#8267D5"/>
</linearGradient>
<linearGradient id="paint44_linear_2287_4602" x1="1222.25" y1="186.495" x2="1465.82" y2="846.636" gradientUnits="userSpaceOnUse">
<stop stop-color="#4ABDCC" stop-opacity="0.1"/>
<stop offset="0.203125" stop-color="#2CEBC7"/>
<stop offset="0.734375" stop-color="#6B8AD1" stop-opacity="0.1"/>
<stop offset="1" stop-color="#8267D5"/>
</linearGradient>
<linearGradient id="paint45_linear_2287_4602" x1="1224.61" y1="158.281" x2="1483.51" y2="872.618" gradientUnits="userSpaceOnUse">
<stop stop-color="#4ABDCC" stop-opacity="0.1"/>
<stop offset="0.203125" stop-color="#2CEBC7"/>
<stop offset="0.734375" stop-color="#6B8AD1" stop-opacity="0.1"/>
<stop offset="1" stop-color="#8267D5"/>
</linearGradient>
<linearGradient id="paint46_linear_2287_4602" x1="1225.73" y1="128.993" x2="1500.28" y2="900.996" gradientUnits="userSpaceOnUse">
<stop stop-color="#4ABDCC" stop-opacity="0.1"/>
<stop offset="0.203125" stop-color="#2CEBC7"/>
<stop offset="0.734375" stop-color="#6B8AD1" stop-opacity="0.1"/>
<stop offset="1" stop-color="#8267D5"/>
</linearGradient>
<linearGradient id="paint47_linear_2287_4602" x1="1225.78" y1="98.5283" x2="1516.17" y2="931.647" gradientUnits="userSpaceOnUse">
<stop stop-color="#4ABDCC" stop-opacity="0.1"/>
<stop offset="0.203125" stop-color="#2CEBC7"/>
<stop offset="0.734375" stop-color="#6B8AD1" stop-opacity="0.1"/>
<stop offset="1" stop-color="#8267D5"/>
</linearGradient>
<linearGradient id="paint48_linear_2287_4602" x1="1224.22" y1="66.7444" x2="1530.65" y2="965.275" gradientUnits="userSpaceOnUse">
<stop stop-color="#4ABDCC" stop-opacity="0.1"/>
<stop offset="0.203125" stop-color="#2CEBC7"/>
<stop offset="0.734375" stop-color="#6B8AD1" stop-opacity="0.1"/>
<stop offset="1" stop-color="#8267D5"/>
</linearGradient>
<linearGradient id="paint49_linear_2287_4602" x1="1221.24" y1="33.9829" x2="1543.56" y2="1001.31" gradientUnits="userSpaceOnUse">
<stop stop-color="#4ABDCC" stop-opacity="0.1"/>
<stop offset="0.203125" stop-color="#2CEBC7"/>
<stop offset="0.734375" stop-color="#6B8AD1" stop-opacity="0.1"/>
<stop offset="1" stop-color="#8267D5"/>
</linearGradient>
<linearGradient id="paint50_linear_2287_4602" x1="1216.47" y1="0" x2="1554.5" y2="1040.36" gradientUnits="userSpaceOnUse">
<stop stop-color="#4ABDCC" stop-opacity="0.1"/>
<stop offset="0.203125" stop-color="#2CEBC7"/>
<stop offset="0.734375" stop-color="#6B8AD1" stop-opacity="0.1"/>
<stop offset="1" stop-color="#8267D5"/>
</linearGradient>
<clipPath id="clip0_2287_4602">
<rect width="1734" height="1320" fill="white"/>
</clipPath>
</defs>
</svg>
