<svg width="1734" height="1320" viewBox="0 0 1734 1320" fill="none" xmlns="http://www.w3.org/2000/svg">
<g clip-path="url(#clip0_2287_4559)">
<path d="M1176.52 306.842C1169.93 300.243 1013.32 446.151 826.736 632.736C640.151 819.32 494.244 975.926 500.842 982.525C507.441 989.123 664.046 843.215 850.631 656.631C1037.22 470.046 1183.12 313.44 1176.52 306.842Z" stroke="url(#paint0_linear_2287_4559)" stroke-miterlimit="10"/>
<path d="M1176.52 306.842C1169.32 299.634 1012.22 445.048 825.632 631.633C639.047 818.218 493.633 975.317 500.841 982.525C508.048 989.732 665.148 844.318 851.733 657.734C1038.32 471.149 1183.73 314.05 1176.52 306.842Z" stroke="url(#paint1_linear_2287_4559)" stroke-miterlimit="10"/>
<path d="M1176.52 306.841C1168.71 299.025 1011.11 443.945 824.53 630.53C637.945 817.114 493.025 974.708 500.842 982.524C508.658 990.341 666.252 845.421 852.836 658.836C1039.42 472.252 1184.34 314.658 1176.52 306.841Z" stroke="url(#paint2_linear_2287_4559)" stroke-miterlimit="10"/>
<path d="M1176.52 306.842C1168 298.315 1009.83 442.659 823.243 629.243C636.658 815.828 492.314 973.997 500.841 982.525C509.369 991.052 667.538 846.708 854.123 660.123C1040.71 473.539 1185.05 315.369 1176.52 306.842Z" stroke="url(#paint3_linear_2287_4559)" stroke-miterlimit="10"/>
<path d="M1176.53 306.842C1167.29 297.604 1008.54 441.372 821.957 627.957C635.373 814.541 491.605 973.287 500.843 982.525C510.081 991.763 668.826 847.995 855.411 661.41C1042 474.825 1185.76 316.08 1176.53 306.842Z" stroke="url(#paint4_linear_2287_4559)" stroke-miterlimit="10"/>
<path d="M1176.52 306.842C1166.47 296.792 1007.07 439.902 820.485 626.486C633.901 813.071 490.791 972.475 500.841 982.525C510.891 992.575 670.295 849.465 856.879 662.88C1043.46 476.296 1186.57 316.892 1176.52 306.842Z" stroke="url(#paint5_linear_2287_4559)" stroke-miterlimit="10"/>
<path d="M1176.52 306.842C1165.56 295.878 1005.42 438.247 818.832 624.832C632.247 811.417 489.878 971.561 500.842 982.525C511.806 993.488 671.95 851.119 858.535 664.535C1045.12 477.95 1187.49 317.806 1176.52 306.842Z" stroke="url(#paint6_linear_2287_4559)" stroke-miterlimit="10"/>
<path d="M1176.52 306.842C1164.65 294.965 1003.76 436.593 817.177 623.177C630.592 809.762 488.964 970.647 500.841 982.524C512.718 994.402 673.603 852.773 860.188 666.189C1046.77 479.604 1188.4 318.719 1176.52 306.842Z" stroke="url(#paint7_linear_2287_4559)" stroke-miterlimit="10"/>
<path d="M1176.52 306.842C1163.63 293.949 1001.92 434.755 815.338 621.339C628.754 807.924 487.948 969.632 500.841 982.524C513.733 995.417 675.441 854.611 862.026 668.027C1048.61 481.442 1189.42 319.734 1176.52 306.842Z" stroke="url(#paint8_linear_2287_4559)" stroke-miterlimit="10"/>
<path d="M1176.52 306.842C1162.41 292.731 999.719 432.549 813.134 619.134C626.55 805.719 486.732 968.414 500.842 982.525C514.953 996.635 677.649 856.818 864.233 670.233C1050.82 483.648 1190.64 320.953 1176.52 306.842Z" stroke="url(#paint9_linear_2287_4559)" stroke-miterlimit="10"/>
<path d="M1176.52 306.842C1161.2 291.513 997.512 430.344 810.928 616.928C624.343 803.513 485.513 967.196 500.842 982.525C516.171 997.854 679.854 859.023 866.438 672.439C1053.02 485.854 1191.85 322.171 1176.52 306.842Z" stroke="url(#paint10_linear_2287_4559)" stroke-miterlimit="10"/>
<path d="M1176.52 306.842C1159.88 290.194 995.123 427.954 808.538 614.539C621.954 801.123 484.193 965.876 500.842 982.525C517.49 999.173 682.243 861.413 868.828 674.828C1055.41 488.244 1193.17 323.491 1176.52 306.842Z" stroke="url(#paint11_linear_2287_4559)" stroke-miterlimit="10"/>
<path d="M1176.52 306.842C1158.45 288.772 992.549 425.381 805.964 611.965C619.379 798.55 482.771 964.455 500.841 982.525C518.91 1000.59 684.816 863.986 871.4 677.401C1057.98 490.817 1194.59 324.912 1176.52 306.842Z" stroke="url(#paint12_linear_2287_4559)" stroke-miterlimit="10"/>
<path d="M1176.53 306.842C1156.93 287.249 989.793 422.623 803.209 609.208C616.624 795.793 481.25 962.932 500.843 982.525C520.435 1002.12 687.575 866.743 874.159 680.158C1060.74 493.574 1196.12 326.434 1176.53 306.842Z" stroke="url(#paint13_linear_2287_4559)" stroke-miterlimit="10"/>
<path d="M1176.52 306.842C1155.21 285.524 986.668 419.499 800.083 606.083C613.499 792.668 479.524 961.207 500.842 982.525C522.16 1003.84 690.699 869.868 877.283 683.283C1063.87 496.699 1197.84 328.16 1176.52 306.842Z" stroke="url(#paint14_linear_2287_4559)" stroke-miterlimit="10"/>
<path d="M1176.53 306.842C1153.28 283.595 983.176 416.007 796.592 602.591C610.007 789.176 477.596 959.278 500.843 982.525C524.09 1005.77 694.192 873.36 880.776 686.776C1067.36 500.191 1199.77 330.089 1176.53 306.842Z" stroke="url(#paint15_linear_2287_4559)" stroke-miterlimit="10"/>
<path d="M1176.52 306.842C1151.35 281.666 979.683 412.514 793.098 599.098C606.514 785.683 475.666 957.349 500.842 982.524C526.017 1007.7 697.683 876.852 884.268 690.268C1070.85 503.683 1201.7 332.017 1176.52 306.842Z" stroke="url(#paint16_linear_2287_4559)" stroke-miterlimit="10"/>
<path d="M1176.52 306.842C1149.11 279.433 975.638 408.47 789.054 595.055C602.469 781.639 473.432 955.115 500.841 982.524C528.25 1009.93 701.726 880.896 888.311 694.312C1074.9 507.727 1203.93 334.251 1176.52 306.842Z" stroke="url(#paint17_linear_2287_4559)" stroke-miterlimit="10"/>
<path d="M1176.52 306.842C1146.78 277.098 971.411 404.242 784.826 590.827C598.241 777.412 471.097 952.781 500.841 982.525C530.585 1012.27 705.954 885.124 892.538 698.539C1079.12 511.955 1206.27 336.586 1176.52 306.842Z" stroke="url(#paint18_linear_2287_4559)" stroke-miterlimit="10"/>
<path d="M1176.52 306.842C1144.14 274.459 966.632 399.463 780.048 586.048C593.463 772.633 468.458 950.141 500.841 982.525C533.225 1014.91 710.733 889.903 897.318 703.318C1083.9 516.734 1208.91 339.225 1176.52 306.842Z" stroke="url(#paint19_linear_2287_4559)" stroke-miterlimit="10"/>
<path d="M1176.52 306.842C1141.3 271.616 961.485 394.317 774.901 580.901C588.316 767.486 465.616 947.299 500.841 982.525C536.067 1017.75 715.88 895.05 902.464 708.465C1089.05 521.88 1211.75 342.068 1176.52 306.842Z" stroke="url(#paint20_linear_2287_4559)" stroke-miterlimit="10"/>
<path d="M1176.52 306.842C1138.25 268.57 955.971 388.802 769.386 575.387C582.802 761.971 462.57 944.253 500.841 982.524C539.112 1020.8 721.394 900.564 907.978 713.979C1094.56 527.394 1214.79 345.113 1176.52 306.842Z" stroke="url(#paint21_linear_2287_4559)" stroke-miterlimit="10"/>
<path d="M1176.52 306.842C1134.9 265.221 949.905 382.737 763.32 569.321C576.736 755.906 459.219 940.903 500.841 982.524C542.462 1024.15 727.459 906.63 914.044 720.045C1100.63 533.46 1218.14 348.463 1176.52 306.842Z" stroke="url(#paint22_linear_2287_4559)" stroke-miterlimit="10"/>
<path d="M1176.52 306.842C1131.35 261.668 943.473 376.304 756.888 562.888C570.304 749.473 455.668 937.35 500.842 982.525C546.016 1027.7 733.894 913.063 920.478 726.478C1107.06 539.894 1221.7 352.016 1176.52 306.842Z" stroke="url(#paint23_linear_2287_4559)" stroke-miterlimit="10"/>
<path d="M1176.53 306.842C1127.39 257.709 936.305 369.135 749.72 555.72C563.136 742.304 451.709 933.391 500.843 982.525C549.976 1031.66 741.063 920.232 927.648 733.647C1114.23 547.062 1225.66 355.975 1176.53 306.842Z" stroke="url(#paint24_linear_2287_4559)" stroke-miterlimit="10"/>
<path d="M1176.52 306.842C1123.13 253.445 928.584 361.415 741.999 548C555.415 734.584 447.445 929.128 500.842 982.525C554.238 1035.92 748.782 927.952 935.366 741.367C1121.95 554.782 1229.92 360.239 1176.52 306.842Z" stroke="url(#paint25_linear_2287_4559)" stroke-miterlimit="10"/>
<path d="M1176.52 306.842C1118.46 248.775 920.129 352.96 733.544 539.544C546.959 726.129 442.775 924.458 500.842 982.524C558.908 1040.59 757.237 936.406 943.822 749.822C1130.41 563.237 1234.59 364.908 1176.52 306.842Z" stroke="url(#paint26_linear_2287_4559)" stroke-miterlimit="10"/>
<path d="M1176.52 306.842C1113.38 243.699 910.937 343.769 724.353 530.354C537.768 716.938 437.698 919.382 500.841 982.524C563.983 1045.67 766.427 945.597 953.011 759.012C1139.6 572.428 1239.67 369.984 1176.52 306.842Z" stroke="url(#paint27_linear_2287_4559)" stroke-miterlimit="10"/>
<path d="M1176.52 306.842C1107.9 238.218 901.012 333.844 714.427 520.428C527.843 707.013 432.217 913.901 500.841 982.525C569.465 1051.15 776.353 955.523 962.937 768.938C1149.52 582.354 1245.15 375.466 1176.52 306.842Z" stroke="url(#paint28_linear_2287_4559)" stroke-miterlimit="10"/>
<path d="M1176.53 306.842C1102.01 232.33 890.352 323.183 703.768 509.768C517.183 696.352 426.331 908.013 500.843 982.525C575.355 1057.04 787.015 966.184 973.6 779.599C1160.18 593.015 1251.04 381.354 1176.53 306.842Z" stroke="url(#paint29_linear_2287_4559)" stroke-miterlimit="10"/>
<path d="M1176.52 306.842C1095.51 225.833 878.587 311.418 692.002 498.003C505.418 684.588 419.832 901.515 500.841 982.524C581.85 1063.53 798.777 977.947 985.362 791.363C1171.95 604.778 1257.53 387.851 1176.52 306.842Z" stroke="url(#paint30_linear_2287_4559)" stroke-miterlimit="10"/>
<path d="M1176.52 306.842C1088.41 218.727 865.721 298.552 679.136 485.137C492.552 671.722 412.726 894.41 500.842 982.525C588.957 1070.64 811.645 990.814 998.229 804.23C1184.81 617.645 1264.64 394.957 1176.52 306.842Z" stroke="url(#paint31_linear_2287_4559)" stroke-miterlimit="10"/>
<path d="M1176.53 306.842C1080.8 211.113 851.936 284.767 665.352 471.351C478.767 657.936 405.114 886.796 500.842 982.525C596.571 1078.25 825.431 1004.6 1012.02 818.015C1198.6 631.431 1272.25 402.571 1176.53 306.842Z" stroke="url(#paint32_linear_2287_4559)" stroke-miterlimit="10"/>
<path d="M1176.53 306.842C1072.47 202.789 836.864 269.694 650.279 456.279C463.695 642.863 396.79 878.472 500.843 982.525C604.896 1086.58 840.504 1019.67 1027.09 833.088C1213.67 646.503 1280.58 410.895 1176.53 306.842Z" stroke="url(#paint33_linear_2287_4559)" stroke-miterlimit="10"/>
<path d="M1176.53 306.842C1063.44 193.754 820.505 253.335 633.92 439.92C447.336 626.504 387.755 869.437 500.842 982.525C613.93 1095.61 856.863 1036.03 1043.45 849.447C1230.03 662.862 1289.61 419.93 1176.53 306.842Z" stroke="url(#paint34_linear_2287_4559)" stroke-miterlimit="10"/>
<path d="M1176.52 306.842C1053.59 183.907 802.675 235.506 616.091 422.09C429.506 608.675 377.908 859.59 500.842 982.525C623.777 1105.46 874.692 1053.86 1061.28 867.276C1247.86 680.692 1299.46 429.777 1176.52 306.842Z" stroke="url(#paint35_linear_2287_4559)" stroke-miterlimit="10"/>
<path d="M1176.53 306.842C1042.93 173.248 783.376 216.206 596.791 402.79C410.206 589.375 367.249 848.931 500.843 982.525C634.436 1116.12 893.992 1073.16 1080.58 886.576C1267.16 699.992 1310.12 440.436 1176.53 306.842Z" stroke="url(#paint36_linear_2287_4559)" stroke-miterlimit="10"/>
<path d="M1176.53 306.842C1031.26 161.574 762.238 195.068 575.653 381.652C389.068 568.237 355.575 837.257 500.843 982.525C646.111 1127.79 915.13 1094.3 1101.72 907.714C1288.3 721.13 1321.79 452.11 1176.53 306.842Z" stroke="url(#paint37_linear_2287_4559)" stroke-miterlimit="10"/>
<path d="M1176.52 306.842C1018.67 148.986 739.444 172.275 552.86 358.86C366.275 545.444 342.986 824.669 500.842 982.524C658.698 1140.38 937.922 1117.09 1124.51 930.506C1311.09 743.922 1334.38 464.698 1176.52 306.842Z" stroke="url(#paint38_linear_2287_4559)" stroke-miterlimit="10"/>
<path d="M1176.53 306.842C1004.86 135.18 714.447 147.277 527.863 333.862C341.278 520.447 329.181 810.863 500.843 982.525C672.505 1154.19 962.921 1142.09 1149.51 955.505C1336.09 768.92 1348.19 478.504 1176.53 306.842Z" stroke="url(#paint39_linear_2287_4559)" stroke-miterlimit="10"/>
<path d="M1176.52 306.842C989.94 120.257 687.426 120.257 500.842 306.842C314.257 493.427 314.257 795.94 500.842 982.525C687.426 1169.11 989.94 1169.11 1176.52 982.524C1363.11 795.94 1363.11 493.426 1176.52 306.842Z" stroke="url(#paint40_linear_2287_4559)" stroke-miterlimit="10"/>
</g>
<defs>
<linearGradient id="paint0_linear_2287_4559" x1="512.79" y1="994.472" x2="485.969" y2="967.408" gradientUnits="userSpaceOnUse">
<stop stop-color="#2CEBC7" stop-opacity="0.6"/>
<stop offset="0.526042" stop-color="#4ABDCC" stop-opacity="0.4"/>
<stop offset="1" stop-color="#8267D5" stop-opacity="0.1"/>
<stop offset="1" stop-color="#8267D5"/>
</linearGradient>
<linearGradient id="paint1_linear_2287_4559" x1="513.891" y1="995.575" x2="484.607" y2="966.001" gradientUnits="userSpaceOnUse">
<stop stop-color="#2CEBC7" stop-opacity="0.6"/>
<stop offset="0.526042" stop-color="#4ABDCC" stop-opacity="0.4"/>
<stop offset="1" stop-color="#8267D5" stop-opacity="0.1"/>
<stop offset="1" stop-color="#8267D5"/>
</linearGradient>
<linearGradient id="paint2_linear_2287_4559" x1="514.995" y1="996.677" x2="483.249" y2="964.591" gradientUnits="userSpaceOnUse">
<stop stop-color="#2CEBC7" stop-opacity="0.6"/>
<stop offset="0.526042" stop-color="#4ABDCC" stop-opacity="0.4"/>
<stop offset="1" stop-color="#8267D5" stop-opacity="0.1"/>
<stop offset="1" stop-color="#8267D5"/>
</linearGradient>
<linearGradient id="paint3_linear_2287_4559" x1="516.281" y1="997.965" x2="481.667" y2="962.944" gradientUnits="userSpaceOnUse">
<stop stop-color="#2CEBC7" stop-opacity="0.6"/>
<stop offset="0.526042" stop-color="#4ABDCC" stop-opacity="0.4"/>
<stop offset="1" stop-color="#8267D5" stop-opacity="0.1"/>
<stop offset="1" stop-color="#8267D5"/>
</linearGradient>
<linearGradient id="paint4_linear_2287_4559" x1="517.569" y1="999.251" x2="480.089" y2="961.294" gradientUnits="userSpaceOnUse">
<stop stop-color="#2CEBC7" stop-opacity="0.6"/>
<stop offset="0.526042" stop-color="#4ABDCC" stop-opacity="0.4"/>
<stop offset="1" stop-color="#8267D5" stop-opacity="0.1"/>
<stop offset="1" stop-color="#8267D5"/>
</linearGradient>
<linearGradient id="paint5_linear_2287_4559" x1="519.038" y1="1000.72" x2="478.286" y2="959.405" gradientUnits="userSpaceOnUse">
<stop stop-color="#2CEBC7" stop-opacity="0.6"/>
<stop offset="0.526042" stop-color="#4ABDCC" stop-opacity="0.4"/>
<stop offset="1" stop-color="#8267D5" stop-opacity="0.1"/>
<stop offset="1" stop-color="#8267D5"/>
</linearGradient>
<linearGradient id="paint6_linear_2287_4559" x1="520.693" y1="1002.38" x2="476.264" y2="957.276" gradientUnits="userSpaceOnUse">
<stop stop-color="#2CEBC7" stop-opacity="0.6"/>
<stop offset="0.526042" stop-color="#4ABDCC" stop-opacity="0.4"/>
<stop offset="1" stop-color="#8267D5" stop-opacity="0.1"/>
<stop offset="1" stop-color="#8267D5"/>
</linearGradient>
<linearGradient id="paint7_linear_2287_4559" x1="522.347" y1="1004.03" x2="474.246" y2="955.142" gradientUnits="userSpaceOnUse">
<stop stop-color="#2CEBC7" stop-opacity="0.6"/>
<stop offset="0.526042" stop-color="#4ABDCC" stop-opacity="0.4"/>
<stop offset="1" stop-color="#8267D5" stop-opacity="0.1"/>
<stop offset="1" stop-color="#8267D5"/>
</linearGradient>
<linearGradient id="paint8_linear_2287_4559" x1="524.185" y1="1005.87" x2="472.01" y2="952.766" gradientUnits="userSpaceOnUse">
<stop stop-color="#2CEBC7" stop-opacity="0.6"/>
<stop offset="0.526042" stop-color="#4ABDCC" stop-opacity="0.4"/>
<stop offset="1" stop-color="#8267D5" stop-opacity="0.1"/>
<stop offset="1" stop-color="#8267D5"/>
</linearGradient>
<linearGradient id="paint9_linear_2287_4559" x1="526.392" y1="1008.07" x2="469.336" y2="949.907" gradientUnits="userSpaceOnUse">
<stop stop-color="#2CEBC7" stop-opacity="0.6"/>
<stop offset="0.526042" stop-color="#4ABDCC" stop-opacity="0.4"/>
<stop offset="1" stop-color="#8267D5" stop-opacity="0.1"/>
<stop offset="1" stop-color="#8267D5"/>
</linearGradient>
<linearGradient id="paint10_linear_2287_4559" x1="528.597" y1="1010.28" x2="466.669" y2="947.04" gradientUnits="userSpaceOnUse">
<stop stop-color="#2CEBC7" stop-opacity="0.6"/>
<stop offset="0.526042" stop-color="#4ABDCC" stop-opacity="0.4"/>
<stop offset="1" stop-color="#8267D5" stop-opacity="0.1"/>
<stop offset="1" stop-color="#8267D5"/>
</linearGradient>
<linearGradient id="paint11_linear_2287_4559" x1="530.987" y1="1012.67" x2="463.79" y2="943.925" gradientUnits="userSpaceOnUse">
<stop stop-color="#2CEBC7" stop-opacity="0.6"/>
<stop offset="0.526042" stop-color="#4ABDCC" stop-opacity="0.4"/>
<stop offset="1" stop-color="#8267D5" stop-opacity="0.1"/>
<stop offset="1" stop-color="#8267D5"/>
</linearGradient>
<linearGradient id="paint12_linear_2287_4559" x1="533.559" y1="1015.24" x2="460.699" y2="940.56" gradientUnits="userSpaceOnUse">
<stop stop-color="#2CEBC7" stop-opacity="0.6"/>
<stop offset="0.526042" stop-color="#4ABDCC" stop-opacity="0.4"/>
<stop offset="1" stop-color="#8267D5" stop-opacity="0.1"/>
<stop offset="1" stop-color="#8267D5"/>
</linearGradient>
<linearGradient id="paint13_linear_2287_4559" x1="536.318" y1="1018" x2="457.403" y2="936.943" gradientUnits="userSpaceOnUse">
<stop stop-color="#2CEBC7" stop-opacity="0.6"/>
<stop offset="0.526042" stop-color="#4ABDCC" stop-opacity="0.4"/>
<stop offset="1" stop-color="#8267D5" stop-opacity="0.1"/>
<stop offset="1" stop-color="#8267D5"/>
</linearGradient>
<linearGradient id="paint14_linear_2287_4559" x1="539.442" y1="1021.12" x2="453.682" y2="932.828" gradientUnits="userSpaceOnUse">
<stop stop-color="#2CEBC7" stop-opacity="0.6"/>
<stop offset="0.526042" stop-color="#4ABDCC" stop-opacity="0.4"/>
<stop offset="1" stop-color="#8267D5" stop-opacity="0.1"/>
<stop offset="1" stop-color="#8267D5"/>
</linearGradient>
<linearGradient id="paint15_linear_2287_4559" x1="542.935" y1="1024.62" x2="449.545" y2="928.211" gradientUnits="userSpaceOnUse">
<stop stop-color="#2CEBC7" stop-opacity="0.6"/>
<stop offset="0.526042" stop-color="#4ABDCC" stop-opacity="0.4"/>
<stop offset="1" stop-color="#8267D5" stop-opacity="0.1"/>
<stop offset="1" stop-color="#8267D5"/>
</linearGradient>
<linearGradient id="paint16_linear_2287_4559" x1="546.426" y1="1028.11" x2="445.427" y2="923.573" gradientUnits="userSpaceOnUse">
<stop stop-color="#2CEBC7" stop-opacity="0.6"/>
<stop offset="0.526042" stop-color="#4ABDCC" stop-opacity="0.4"/>
<stop offset="1" stop-color="#8267D5" stop-opacity="0.1"/>
<stop offset="1" stop-color="#8267D5"/>
</linearGradient>
<linearGradient id="paint17_linear_2287_4559" x1="550.469" y1="1032.15" x2="440.688" y2="918.179" gradientUnits="userSpaceOnUse">
<stop stop-color="#2CEBC7" stop-opacity="0.6"/>
<stop offset="0.526042" stop-color="#4ABDCC" stop-opacity="0.4"/>
<stop offset="1" stop-color="#8267D5" stop-opacity="0.1"/>
<stop offset="1" stop-color="#8267D5"/>
</linearGradient>
<linearGradient id="paint18_linear_2287_4559" x1="554.697" y1="1036.38" x2="435.765" y2="912.511" gradientUnits="userSpaceOnUse">
<stop stop-color="#2CEBC7" stop-opacity="0.6"/>
<stop offset="0.526042" stop-color="#4ABDCC" stop-opacity="0.4"/>
<stop offset="1" stop-color="#8267D5" stop-opacity="0.1"/>
<stop offset="1" stop-color="#8267D5"/>
</linearGradient>
<linearGradient id="paint19_linear_2287_4559" x1="559.477" y1="1041.16" x2="430.239" y2="906.07" gradientUnits="userSpaceOnUse">
<stop stop-color="#2CEBC7" stop-opacity="0.6"/>
<stop offset="0.526042" stop-color="#4ABDCC" stop-opacity="0.4"/>
<stop offset="1" stop-color="#8267D5" stop-opacity="0.1"/>
<stop offset="1" stop-color="#8267D5"/>
</linearGradient>
<linearGradient id="paint20_linear_2287_4559" x1="564.623" y1="1046.31" x2="424.334" y2="899.094" gradientUnits="userSpaceOnUse">
<stop stop-color="#2CEBC7" stop-opacity="0.6"/>
<stop offset="0.526042" stop-color="#4ABDCC" stop-opacity="0.4"/>
<stop offset="1" stop-color="#8267D5" stop-opacity="0.1"/>
<stop offset="1" stop-color="#8267D5"/>
</linearGradient>
<linearGradient id="paint21_linear_2287_4559" x1="570.137" y1="1051.82" x2="418.06" y2="891.572" gradientUnits="userSpaceOnUse">
<stop stop-color="#2CEBC7" stop-opacity="0.6"/>
<stop offset="0.526042" stop-color="#4ABDCC" stop-opacity="0.4"/>
<stop offset="1" stop-color="#8267D5" stop-opacity="0.1"/>
<stop offset="1" stop-color="#8267D5"/>
</linearGradient>
<linearGradient id="paint22_linear_2287_4559" x1="576.202" y1="1057.89" x2="411.223" y2="883.244" gradientUnits="userSpaceOnUse">
<stop stop-color="#2CEBC7" stop-opacity="0.6"/>
<stop offset="0.526042" stop-color="#4ABDCC" stop-opacity="0.4"/>
<stop offset="1" stop-color="#8267D5" stop-opacity="0.1"/>
<stop offset="1" stop-color="#8267D5"/>
</linearGradient>
<linearGradient id="paint23_linear_2287_4559" x1="582.637" y1="1064.32" x2="404.047" y2="874.348" gradientUnits="userSpaceOnUse">
<stop stop-color="#2CEBC7" stop-opacity="0.6"/>
<stop offset="0.526042" stop-color="#4ABDCC" stop-opacity="0.4"/>
<stop offset="1" stop-color="#8267D5" stop-opacity="0.1"/>
<stop offset="1" stop-color="#8267D5"/>
</linearGradient>
<linearGradient id="paint24_linear_2287_4559" x1="589.806" y1="1071.49" x2="396.141" y2="864.361" gradientUnits="userSpaceOnUse">
<stop stop-color="#2CEBC7" stop-opacity="0.6"/>
<stop offset="0.526042" stop-color="#4ABDCC" stop-opacity="0.4"/>
<stop offset="1" stop-color="#8267D5" stop-opacity="0.1"/>
<stop offset="1" stop-color="#8267D5"/>
</linearGradient>
<linearGradient id="paint25_linear_2287_4559" x1="597.525" y1="1079.21" x2="387.732" y2="853.519" gradientUnits="userSpaceOnUse">
<stop stop-color="#2CEBC7" stop-opacity="0.6"/>
<stop offset="0.526042" stop-color="#4ABDCC" stop-opacity="0.4"/>
<stop offset="1" stop-color="#8267D5" stop-opacity="0.1"/>
<stop offset="1" stop-color="#8267D5"/>
</linearGradient>
<linearGradient id="paint26_linear_2287_4559" x1="605.98" y1="1087.66" x2="378.651" y2="841.541" gradientUnits="userSpaceOnUse">
<stop stop-color="#2CEBC7" stop-opacity="0.6"/>
<stop offset="0.526042" stop-color="#4ABDCC" stop-opacity="0.4"/>
<stop offset="1" stop-color="#8267D5" stop-opacity="0.1"/>
<stop offset="1" stop-color="#8267D5"/>
</linearGradient>
<linearGradient id="paint27_linear_2287_4559" x1="615.17" y1="1096.85" x2="368.934" y2="828.401" gradientUnits="userSpaceOnUse">
<stop stop-color="#2CEBC7" stop-opacity="0.6"/>
<stop offset="0.526042" stop-color="#4ABDCC" stop-opacity="0.4"/>
<stop offset="1" stop-color="#8267D5" stop-opacity="0.1"/>
<stop offset="1" stop-color="#8267D5"/>
</linearGradient>
<linearGradient id="paint28_linear_2287_4559" x1="625.096" y1="1106.78" x2="358.62" y2="814.071" gradientUnits="userSpaceOnUse">
<stop stop-color="#2CEBC7" stop-opacity="0.6"/>
<stop offset="0.526042" stop-color="#4ABDCC" stop-opacity="0.4"/>
<stop offset="1" stop-color="#8267D5" stop-opacity="0.1"/>
<stop offset="1" stop-color="#8267D5"/>
</linearGradient>
<linearGradient id="paint29_linear_2287_4559" x1="635.759" y1="1117.44" x2="347.754" y2="798.521" gradientUnits="userSpaceOnUse">
<stop stop-color="#2CEBC7" stop-opacity="0.6"/>
<stop offset="0.526042" stop-color="#4ABDCC" stop-opacity="0.4"/>
<stop offset="1" stop-color="#8267D5" stop-opacity="0.1"/>
<stop offset="1" stop-color="#8267D5"/>
</linearGradient>
<linearGradient id="paint30_linear_2287_4559" x1="647.521" y1="1129.2" x2="336.016" y2="781.175" gradientUnits="userSpaceOnUse">
<stop stop-color="#2CEBC7" stop-opacity="0.6"/>
<stop offset="0.526042" stop-color="#4ABDCC" stop-opacity="0.4"/>
<stop offset="1" stop-color="#8267D5" stop-opacity="0.1"/>
<stop offset="1" stop-color="#8267D5"/>
</linearGradient>
<linearGradient id="paint31_linear_2287_4559" x1="660.388" y1="1142.07" x2="323.489" y2="761.984" gradientUnits="userSpaceOnUse">
<stop stop-color="#2CEBC7" stop-opacity="0.6"/>
<stop offset="0.526042" stop-color="#4ABDCC" stop-opacity="0.4"/>
<stop offset="1" stop-color="#8267D5" stop-opacity="0.1"/>
<stop offset="1" stop-color="#8267D5"/>
</linearGradient>
<linearGradient id="paint32_linear_2287_4559" x1="674.175" y1="1155.86" x2="310.43" y2="741.171" gradientUnits="userSpaceOnUse">
<stop stop-color="#2CEBC7" stop-opacity="0.6"/>
<stop offset="0.526042" stop-color="#4ABDCC" stop-opacity="0.4"/>
<stop offset="1" stop-color="#8267D5" stop-opacity="0.1"/>
<stop offset="1" stop-color="#8267D5"/>
</linearGradient>
<linearGradient id="paint33_linear_2287_4559" x1="689.247" y1="1170.93" x2="296.584" y2="718.127" gradientUnits="userSpaceOnUse">
<stop stop-color="#2CEBC7" stop-opacity="0.6"/>
<stop offset="0.526042" stop-color="#4ABDCC" stop-opacity="0.4"/>
<stop offset="1" stop-color="#8267D5" stop-opacity="0.1"/>
<stop offset="1" stop-color="#8267D5"/>
</linearGradient>
<linearGradient id="paint34_linear_2287_4559" x1="705.606" y1="1187.29" x2="282.073" y2="692.783" gradientUnits="userSpaceOnUse">
<stop stop-color="#2CEBC7" stop-opacity="0.6"/>
<stop offset="0.526042" stop-color="#4ABDCC" stop-opacity="0.4"/>
<stop offset="1" stop-color="#8267D5" stop-opacity="0.1"/>
<stop offset="1" stop-color="#8267D5"/>
</linearGradient>
<linearGradient id="paint35_linear_2287_4559" x1="723.435" y1="1205.12" x2="266.875" y2="664.779" gradientUnits="userSpaceOnUse">
<stop stop-color="#2CEBC7" stop-opacity="0.6"/>
<stop offset="0.526042" stop-color="#4ABDCC" stop-opacity="0.4"/>
<stop offset="1" stop-color="#8267D5" stop-opacity="0.1"/>
<stop offset="1" stop-color="#8267D5"/>
</linearGradient>
<linearGradient id="paint36_linear_2287_4559" x1="742.736" y1="1224.42" x2="251.16" y2="634.031" gradientUnits="userSpaceOnUse">
<stop stop-color="#2CEBC7" stop-opacity="0.6"/>
<stop offset="0.526042" stop-color="#4ABDCC" stop-opacity="0.4"/>
<stop offset="1" stop-color="#8267D5" stop-opacity="0.1"/>
<stop offset="1" stop-color="#8267D5"/>
</linearGradient>
<linearGradient id="paint37_linear_2287_4559" x1="763.874" y1="1245.56" x2="234.834" y2="599.857" gradientUnits="userSpaceOnUse">
<stop stop-color="#2CEBC7" stop-opacity="0.6"/>
<stop offset="0.526042" stop-color="#4ABDCC" stop-opacity="0.4"/>
<stop offset="1" stop-color="#8267D5" stop-opacity="0.1"/>
<stop offset="1" stop-color="#8267D5"/>
</linearGradient>
<linearGradient id="paint38_linear_2287_4559" x1="786.665" y1="1268.35" x2="218.279" y2="562.451" gradientUnits="userSpaceOnUse">
<stop stop-color="#2CEBC7" stop-opacity="0.6"/>
<stop offset="0.526042" stop-color="#4ABDCC" stop-opacity="0.4"/>
<stop offset="1" stop-color="#8267D5" stop-opacity="0.1"/>
<stop offset="1" stop-color="#8267D5"/>
</linearGradient>
<linearGradient id="paint39_linear_2287_4559" x1="811.664" y1="1293.35" x2="201.389" y2="520.796" gradientUnits="userSpaceOnUse">
<stop stop-color="#2CEBC7" stop-opacity="0.6"/>
<stop offset="0.526042" stop-color="#4ABDCC" stop-opacity="0.4"/>
<stop offset="1" stop-color="#8267D5" stop-opacity="0.1"/>
<stop offset="1" stop-color="#8267D5"/>
</linearGradient>
<linearGradient id="paint40_linear_2287_4559" x1="838.683" y1="1320.37" x2="184.634" y2="475.075" gradientUnits="userSpaceOnUse">
<stop stop-color="#2CEBC7" stop-opacity="0.6"/>
<stop offset="0.526042" stop-color="#4ABDCC" stop-opacity="0.4"/>
<stop offset="1" stop-color="#8267D5" stop-opacity="0.1"/>
<stop offset="1" stop-color="#8267D5"/>
</linearGradient>
<clipPath id="clip0_2287_4559">
<rect width="1734" height="1320" fill="white"/>
</clipPath>
</defs>
</svg>
