<svg width="268" height="232" viewBox="0 0 268 232" fill="none" xmlns="http://www.w3.org/2000/svg">
<path d="M130.982 116.749L133.684 114.511L136.385 112.195L137.003 115.668L137.62 119.142L134.301 117.984L130.982 116.749Z" stroke="url(#paint0_linear_2291_4712)" stroke-miterlimit="10"/>
<path d="M130.751 116.672L133.761 114.356L136.694 112.041L137.234 115.746L137.774 119.528L134.224 118.138L130.751 116.672Z" stroke="url(#paint1_linear_2291_4712)" stroke-miterlimit="10"/>
<path d="M130.442 116.595L133.761 114.202L137.08 111.81L137.466 115.823L137.929 119.914L134.224 118.293L130.442 116.595Z" stroke="url(#paint2_linear_2291_4712)" stroke-miterlimit="10"/>
<path d="M130.211 116.518L133.838 114.048L137.466 111.578L137.774 115.977L138.083 120.3L134.147 118.447L130.211 116.518Z" stroke="url(#paint3_linear_2291_4712)" stroke-miterlimit="10"/>
<path d="M129.902 116.363L133.915 113.894L137.929 111.347L138.083 116.055L138.237 120.763L134.07 118.602L129.902 116.363Z" stroke="url(#paint4_linear_2291_4712)" stroke-miterlimit="10"/>
<path d="M129.593 116.209L133.992 113.662L138.392 111.192V116.209V121.303L133.992 118.756L129.593 116.209Z" stroke="url(#paint5_linear_2291_4712)" stroke-miterlimit="10"/>
<path d="M129.284 116.054L134.07 113.507L138.932 110.96L138.7 116.363L138.546 121.843L133.915 118.987L129.284 116.054Z" stroke="url(#paint6_linear_2291_4712)" stroke-miterlimit="10"/>
<path d="M128.898 115.9L134.224 113.276L139.472 110.729L139.086 116.595L138.623 122.461L133.761 119.142L128.898 115.9Z" stroke="url(#paint7_linear_2291_4712)" stroke-miterlimit="10"/>
<path d="M128.59 115.669L134.301 113.122L140.09 110.498L139.395 116.826L138.778 123.078L133.684 119.373L128.59 115.669Z" stroke="url(#paint8_linear_2291_4712)" stroke-miterlimit="10"/>
<path d="M128.204 115.437L134.456 112.89L140.784 110.343L139.781 117.058L138.855 123.773L133.529 119.605L128.204 115.437Z" stroke="url(#paint9_linear_2291_4712)" stroke-miterlimit="10"/>
<path d="M127.818 115.129L134.61 112.659L141.479 110.189L140.244 117.29L138.932 124.467L133.375 119.837L127.818 115.129Z" stroke="url(#paint10_linear_2291_4712)" stroke-miterlimit="10"/>
<path d="M127.355 114.819L134.841 112.427L142.251 109.957L140.63 117.675L139.009 125.316L133.143 120.068L127.355 114.819Z" stroke="url(#paint11_linear_2291_4712)" stroke-miterlimit="10"/>
<path d="M126.892 114.434L134.996 112.118L143.1 109.803L141.093 117.984L139.009 126.165L132.989 120.299L126.892 114.434Z" stroke="url(#paint12_linear_2291_4712)" stroke-miterlimit="10"/>
<path d="M126.429 114.048L135.227 111.887L144.026 109.726L141.556 118.37L139.009 127.091L132.758 120.608L126.429 114.048Z" stroke="url(#paint13_linear_2291_4712)" stroke-miterlimit="10"/>
<path d="M125.966 113.662L135.536 111.578L145.029 109.571L142.019 118.833L139.009 128.095L132.526 120.84L125.966 113.662Z" stroke="url(#paint14_linear_2291_4712)" stroke-miterlimit="10"/>
<path d="M125.502 113.122L135.768 111.346L146.11 109.494L142.482 119.373L138.932 129.175L132.217 121.149L125.502 113.122Z" stroke="url(#paint15_linear_2291_4712)" stroke-miterlimit="10"/>
<path d="M124.962 112.581L136.076 111.038L147.268 109.417L143.023 119.914L138.855 130.333L131.908 121.457L124.962 112.581Z" stroke="url(#paint16_linear_2291_4712)" stroke-miterlimit="10"/>
<path d="M124.422 111.964L136.462 110.729L148.503 109.417L143.563 120.531L138.623 131.568L131.523 121.766L124.422 111.964Z" stroke="url(#paint17_linear_2291_4712)" stroke-miterlimit="10"/>
<path d="M123.882 111.269L136.848 110.42L149.814 109.494L144.103 121.149L138.392 132.88L131.137 122.075L123.882 111.269Z" stroke="url(#paint18_linear_2291_4712)" stroke-miterlimit="10"/>
<path d="M123.264 110.575L137.311 110.034L151.281 109.571L144.721 121.92L138.16 134.269L130.751 122.383L123.264 110.575Z" stroke="url(#paint19_linear_2291_4712)" stroke-miterlimit="10"/>
<path d="M122.724 109.726H137.774H152.825L145.261 122.769L137.774 135.813L130.21 122.769L122.724 109.726Z" stroke="url(#paint20_linear_2291_4712)" stroke-miterlimit="10"/>
<path d="M122.107 108.799L138.315 109.417L154.445 109.957L145.878 123.695L137.311 137.356L129.748 123.078L122.107 108.799Z" stroke="url(#paint21_linear_2291_4712)" stroke-miterlimit="10"/>
<path d="M121.489 107.796L138.855 109.031L156.221 110.266L146.496 124.699L136.771 139.132L129.13 123.464L121.489 107.796Z" stroke="url(#paint22_linear_2291_4712)" stroke-miterlimit="10"/>
<path d="M120.872 106.716L139.472 108.645L158.15 110.652L147.113 125.78L136.153 140.907L128.513 123.85L120.872 106.716Z" stroke="url(#paint23_linear_2291_4712)" stroke-miterlimit="10"/>
<path d="M120.254 105.48L140.167 108.336L160.157 111.115L147.731 126.937L135.382 142.836L127.818 124.158L120.254 105.48Z" stroke="url(#paint24_linear_2291_4712)" stroke-miterlimit="10"/>
<path d="M119.637 104.168L140.939 107.95L162.241 111.732L148.348 128.326L134.455 144.843L127.046 124.544L119.637 104.168Z" stroke="url(#paint25_linear_2291_4712)" stroke-miterlimit="10"/>
<path d="M119.019 102.779L141.788 107.642L164.556 112.427L148.966 129.716L133.452 147.004L126.197 124.93L119.019 102.779Z" stroke="url(#paint26_linear_2291_4712)" stroke-miterlimit="10"/>
<path d="M118.402 101.236L142.714 107.256L166.949 113.276L149.583 131.337L132.217 149.32L125.348 125.239L118.402 101.236Z" stroke="url(#paint27_linear_2291_4712)" stroke-miterlimit="10"/>
<path d="M117.862 99.5376L143.717 106.947L169.573 114.356L150.2 133.034L130.828 151.712L124.345 125.625L117.862 99.5376Z" stroke="url(#paint28_linear_2291_4712)" stroke-miterlimit="10"/>
<path d="M117.244 97.6084L144.721 106.561L172.274 115.514L150.741 134.887L129.284 154.259L123.264 125.934L117.244 97.6084Z" stroke="url(#paint29_linear_2291_4712)" stroke-miterlimit="10"/>
<path d="M116.704 95.6016L145.956 106.253L175.13 116.904L151.358 136.894L127.509 156.883L122.107 126.243L116.704 95.6016Z" stroke="url(#paint30_linear_2291_4712)" stroke-miterlimit="10"/>
<path d="M116.164 93.4404L147.19 105.944L178.217 118.524L151.821 139.055L125.502 159.662L120.872 126.551L116.164 93.4404Z" stroke="url(#paint31_linear_2291_4712)" stroke-miterlimit="10"/>
<path d="M115.701 91.0479L148.58 105.712L181.382 120.3L152.284 141.447L123.264 162.595L119.482 126.86L115.701 91.0479Z" stroke="url(#paint32_linear_2291_4712)" stroke-miterlimit="10"/>
<path d="M115.315 88.501L150.046 105.481L184.778 122.384L152.747 144.071L120.717 165.682L118.016 127.092L115.315 88.501Z" stroke="url(#paint33_linear_2291_4712)" stroke-miterlimit="10"/>
<path d="M114.929 85.7222L151.667 105.249L188.328 124.776L153.056 146.85L117.862 168.846L116.395 127.323L114.929 85.7222Z" stroke="url(#paint34_linear_2291_4712)" stroke-miterlimit="10"/>
<path d="M114.697 82.7896L153.365 105.095L192.11 127.477L153.365 149.783L114.697 172.165L114.697 127.477V82.7896Z" stroke="url(#paint35_linear_2291_4712)" stroke-miterlimit="10"/>
<path d="M114.466 79.5479L155.217 105.018L195.969 130.487L153.596 153.024L111.147 175.638L112.768 127.555L114.466 79.5479Z" stroke="url(#paint36_linear_2291_4712)" stroke-miterlimit="10"/>
<path d="M114.388 76.0747L157.224 104.94L200.06 133.883L153.674 156.498L107.211 179.189L110.761 127.632L114.388 76.0747Z" stroke="url(#paint37_linear_2291_4712)" stroke-miterlimit="10"/>
<path d="M114.466 72.3701L159.385 105.018L204.382 137.665L153.597 160.28L102.811 182.894L108.6 127.632L114.466 72.3701Z" stroke="url(#paint38_linear_2291_4712)" stroke-miterlimit="10"/>
<path d="M114.62 68.3564L161.7 105.095L208.781 141.91L153.365 164.293L98.0259 186.675L106.284 127.477L114.62 68.3564Z" stroke="url(#paint39_linear_2291_4712)" stroke-miterlimit="10"/>
<path d="M115.006 64.0342L164.17 105.326L213.412 146.618L153.056 168.615L92.7004 190.611L103.815 127.323L115.006 64.0342Z" stroke="url(#paint40_linear_2291_4712)" stroke-miterlimit="10"/>
<path d="M115.546 59.4033L166.872 105.635L218.197 151.866L152.516 173.246L86.7576 194.548L101.19 127.014L115.546 59.4033Z" stroke="url(#paint41_linear_2291_4712)" stroke-miterlimit="10"/>
<path d="M116.241 54.4639L169.727 106.098L223.137 157.732L151.744 178.185L80.3514 198.638L98.3347 126.551L116.241 54.4639Z" stroke="url(#paint42_linear_2291_4712)" stroke-miterlimit="10"/>
<path d="M117.244 49.2158L172.737 106.716L228.231 164.139L150.741 183.434L73.2509 202.806L95.2475 126.011L117.244 49.2158Z" stroke="url(#paint43_linear_2291_4712)" stroke-miterlimit="10"/>
<path d="M118.556 43.5815L176.056 107.41L233.479 171.239L149.506 189.145L65.4554 206.974L92.0058 125.316L118.556 43.5815Z" stroke="url(#paint44_linear_2291_4712)" stroke-miterlimit="10"/>
<path d="M120.1 37.561L179.452 108.336L238.882 179.111L147.885 195.165L56.9656 211.142L88.5327 124.39L120.1 37.561Z" stroke="url(#paint45_linear_2291_4712)" stroke-miterlimit="10"/>
<path d="M122.029 31.2324L183.157 109.494L244.362 187.756L145.956 201.571L47.6267 215.387L84.8281 123.31L122.029 31.2324Z" stroke="url(#paint46_linear_2291_4712)" stroke-miterlimit="10"/>
<path d="M124.345 24.4404L187.093 110.806L249.841 197.172L143.64 208.363L37.4386 219.555L80.8916 121.997L124.345 24.4404Z" stroke="url(#paint47_linear_2291_4712)" stroke-miterlimit="10"/>
<path d="M127.046 17.1855L191.261 112.427L255.476 207.592L140.939 215.618L26.4019 223.645L76.724 120.377L127.046 17.1855Z" stroke="url(#paint48_linear_2291_4712)" stroke-miterlimit="10"/>
<path d="M130.288 9.54443L195.66 114.279L261.11 218.937L137.697 223.259L14.2843 227.581L72.3246 118.524L130.288 9.54443Z" stroke="url(#paint49_linear_2291_4712)" stroke-miterlimit="10"/>
<path d="M133.992 1.44043L200.368 116.44L266.744 231.44H133.992L1.24072 231.44L67.6166 116.44L133.992 1.44043Z" stroke="url(#paint50_linear_2291_4712)" stroke-miterlimit="10"/>
<defs>
<linearGradient id="paint0_linear_2291_4712" x1="130.982" y1="112.195" x2="138.357" y2="113.094" gradientUnits="userSpaceOnUse">
<stop stop-color="#2CEBC7"/>
<stop offset="0.348958" stop-color="#4ABDCC" stop-opacity="0.2"/>
<stop offset="0.65625" stop-color="#8267D5" stop-opacity="0.1"/>
</linearGradient>
<linearGradient id="paint1_linear_2291_4712" x1="130.751" y1="112.041" x2="138.558" y2="112.975" gradientUnits="userSpaceOnUse">
<stop stop-color="#2CEBC7"/>
<stop offset="0.348958" stop-color="#4ABDCC" stop-opacity="0.2"/>
<stop offset="0.65625" stop-color="#8267D5" stop-opacity="0.1"/>
</linearGradient>
<linearGradient id="paint2_linear_2291_4712" x1="130.442" y1="111.81" x2="138.768" y2="112.791" gradientUnits="userSpaceOnUse">
<stop stop-color="#2CEBC7"/>
<stop offset="0.348958" stop-color="#4ABDCC" stop-opacity="0.2"/>
<stop offset="0.65625" stop-color="#8267D5" stop-opacity="0.1"/>
</linearGradient>
<linearGradient id="paint3_linear_2291_4712" x1="130.211" y1="111.578" x2="138.971" y2="112.587" gradientUnits="userSpaceOnUse">
<stop stop-color="#2CEBC7"/>
<stop offset="0.348958" stop-color="#4ABDCC" stop-opacity="0.2"/>
<stop offset="0.65625" stop-color="#8267D5" stop-opacity="0.1"/>
</linearGradient>
<linearGradient id="paint4_linear_2291_4712" x1="129.902" y1="111.347" x2="139.182" y2="112.395" gradientUnits="userSpaceOnUse">
<stop stop-color="#2CEBC7"/>
<stop offset="0.348958" stop-color="#4ABDCC" stop-opacity="0.2"/>
<stop offset="0.65625" stop-color="#8267D5" stop-opacity="0.1"/>
</linearGradient>
<linearGradient id="paint5_linear_2291_4712" x1="129.593" y1="111.192" x2="139.393" y2="112.28" gradientUnits="userSpaceOnUse">
<stop stop-color="#2CEBC7"/>
<stop offset="0.348958" stop-color="#4ABDCC" stop-opacity="0.2"/>
<stop offset="0.65625" stop-color="#8267D5" stop-opacity="0.1"/>
</linearGradient>
<linearGradient id="paint6_linear_2291_4712" x1="129.284" y1="110.96" x2="140.025" y2="112.175" gradientUnits="userSpaceOnUse">
<stop stop-color="#2CEBC7"/>
<stop offset="0.348958" stop-color="#4ABDCC" stop-opacity="0.2"/>
<stop offset="0.65625" stop-color="#8267D5" stop-opacity="0.1"/>
</linearGradient>
<linearGradient id="paint7_linear_2291_4712" x1="128.898" y1="110.729" x2="140.665" y2="112.082" gradientUnits="userSpaceOnUse">
<stop stop-color="#2CEBC7"/>
<stop offset="0.348958" stop-color="#4ABDCC" stop-opacity="0.2"/>
<stop offset="0.65625" stop-color="#8267D5" stop-opacity="0.1"/>
</linearGradient>
<linearGradient id="paint8_linear_2291_4712" x1="128.59" y1="110.498" x2="141.383" y2="111.989" gradientUnits="userSpaceOnUse">
<stop stop-color="#2CEBC7"/>
<stop offset="0.348958" stop-color="#4ABDCC" stop-opacity="0.2"/>
<stop offset="0.65625" stop-color="#8267D5" stop-opacity="0.1"/>
</linearGradient>
<linearGradient id="paint9_linear_2291_4712" x1="128.204" y1="110.343" x2="142.189" y2="112.014" gradientUnits="userSpaceOnUse">
<stop stop-color="#2CEBC7"/>
<stop offset="0.348958" stop-color="#4ABDCC" stop-opacity="0.2"/>
<stop offset="0.65625" stop-color="#8267D5" stop-opacity="0.1"/>
</linearGradient>
<linearGradient id="paint10_linear_2291_4712" x1="127.818" y1="110.189" x2="142.995" y2="112.041" gradientUnits="userSpaceOnUse">
<stop stop-color="#2CEBC7"/>
<stop offset="0.348958" stop-color="#4ABDCC" stop-opacity="0.2"/>
<stop offset="0.65625" stop-color="#8267D5" stop-opacity="0.1"/>
</linearGradient>
<linearGradient id="paint11_linear_2291_4712" x1="127.355" y1="109.957" x2="143.898" y2="112.003" gradientUnits="userSpaceOnUse">
<stop stop-color="#2CEBC7"/>
<stop offset="0.348958" stop-color="#4ABDCC" stop-opacity="0.2"/>
<stop offset="0.65625" stop-color="#8267D5" stop-opacity="0.1"/>
</linearGradient>
<linearGradient id="paint12_linear_2291_4712" x1="126.892" y1="109.803" x2="144.88" y2="112.076" gradientUnits="userSpaceOnUse">
<stop stop-color="#2CEBC7"/>
<stop offset="0.348958" stop-color="#4ABDCC" stop-opacity="0.2"/>
<stop offset="0.65625" stop-color="#8267D5" stop-opacity="0.1"/>
</linearGradient>
<linearGradient id="paint13_linear_2291_4712" x1="126.429" y1="109.726" x2="145.945" y2="112.248" gradientUnits="userSpaceOnUse">
<stop stop-color="#2CEBC7"/>
<stop offset="0.348958" stop-color="#4ABDCC" stop-opacity="0.2"/>
<stop offset="0.65625" stop-color="#8267D5" stop-opacity="0.1"/>
</linearGradient>
<linearGradient id="paint14_linear_2291_4712" x1="125.966" y1="109.571" x2="147.097" y2="112.345" gradientUnits="userSpaceOnUse">
<stop stop-color="#2CEBC7"/>
<stop offset="0.348958" stop-color="#4ABDCC" stop-opacity="0.2"/>
<stop offset="0.65625" stop-color="#8267D5" stop-opacity="0.1"/>
</linearGradient>
<linearGradient id="paint15_linear_2291_4712" x1="125.502" y1="109.494" x2="148.331" y2="112.543" gradientUnits="userSpaceOnUse">
<stop stop-color="#2CEBC7"/>
<stop offset="0.348958" stop-color="#4ABDCC" stop-opacity="0.2"/>
<stop offset="0.65625" stop-color="#8267D5" stop-opacity="0.1"/>
</linearGradient>
<linearGradient id="paint16_linear_2291_4712" x1="124.962" y1="109.417" x2="149.656" y2="112.776" gradientUnits="userSpaceOnUse">
<stop stop-color="#2CEBC7"/>
<stop offset="0.348958" stop-color="#4ABDCC" stop-opacity="0.2"/>
<stop offset="0.65625" stop-color="#8267D5" stop-opacity="0.1"/>
</linearGradient>
<linearGradient id="paint17_linear_2291_4712" x1="124.422" y1="109.417" x2="151.062" y2="113.111" gradientUnits="userSpaceOnUse">
<stop stop-color="#2CEBC7"/>
<stop offset="0.348958" stop-color="#4ABDCC" stop-opacity="0.2"/>
<stop offset="0.65625" stop-color="#8267D5" stop-opacity="0.1"/>
</linearGradient>
<linearGradient id="paint18_linear_2291_4712" x1="123.882" y1="109.494" x2="152.549" y2="113.549" gradientUnits="userSpaceOnUse">
<stop stop-color="#2CEBC7"/>
<stop offset="0.348958" stop-color="#4ABDCC" stop-opacity="0.2"/>
<stop offset="0.65625" stop-color="#8267D5" stop-opacity="0.1"/>
</linearGradient>
<linearGradient id="paint19_linear_2291_4712" x1="123.264" y1="109.571" x2="154.207" y2="114.048" gradientUnits="userSpaceOnUse">
<stop stop-color="#2CEBC7"/>
<stop offset="0.348958" stop-color="#4ABDCC" stop-opacity="0.2"/>
<stop offset="0.65625" stop-color="#8267D5" stop-opacity="0.1"/>
</linearGradient>
<linearGradient id="paint20_linear_2291_4712" x1="122.724" y1="109.726" x2="155.944" y2="114.615" gradientUnits="userSpaceOnUse">
<stop stop-color="#2CEBC7"/>
<stop offset="0.348958" stop-color="#4ABDCC" stop-opacity="0.2"/>
<stop offset="0.65625" stop-color="#8267D5" stop-opacity="0.1"/>
</linearGradient>
<linearGradient id="paint21_linear_2291_4712" x1="122.107" y1="108.799" x2="157.825" y2="113.959" gradientUnits="userSpaceOnUse">
<stop stop-color="#2CEBC7"/>
<stop offset="0.348958" stop-color="#4ABDCC" stop-opacity="0.2"/>
<stop offset="0.65625" stop-color="#8267D5" stop-opacity="0.1"/>
</linearGradient>
<linearGradient id="paint22_linear_2291_4712" x1="121.489" y1="107.796" x2="159.883" y2="113.224" gradientUnits="userSpaceOnUse">
<stop stop-color="#2CEBC7"/>
<stop offset="0.348958" stop-color="#4ABDCC" stop-opacity="0.2"/>
<stop offset="0.65625" stop-color="#8267D5" stop-opacity="0.1"/>
</linearGradient>
<linearGradient id="paint23_linear_2291_4712" x1="120.872" y1="106.716" x2="162.108" y2="112.45" gradientUnits="userSpaceOnUse">
<stop stop-color="#2CEBC7"/>
<stop offset="0.348958" stop-color="#4ABDCC" stop-opacity="0.2"/>
<stop offset="0.65625" stop-color="#8267D5" stop-opacity="0.1"/>
</linearGradient>
<linearGradient id="paint24_linear_2291_4712" x1="120.254" y1="105.48" x2="164.426" y2="111.499" gradientUnits="userSpaceOnUse">
<stop stop-color="#2CEBC7"/>
<stop offset="0.348958" stop-color="#4ABDCC" stop-opacity="0.2"/>
<stop offset="0.65625" stop-color="#8267D5" stop-opacity="0.1"/>
</linearGradient>
<linearGradient id="paint25_linear_2291_4712" x1="119.637" y1="104.168" x2="166.832" y2="110.474" gradientUnits="userSpaceOnUse">
<stop stop-color="#2CEBC7"/>
<stop offset="0.348958" stop-color="#4ABDCC" stop-opacity="0.2"/>
<stop offset="0.65625" stop-color="#8267D5" stop-opacity="0.1"/>
</linearGradient>
<linearGradient id="paint26_linear_2291_4712" x1="119.019" y1="102.779" x2="169.494" y2="109.408" gradientUnits="userSpaceOnUse">
<stop stop-color="#2CEBC7"/>
<stop offset="0.348958" stop-color="#4ABDCC" stop-opacity="0.2"/>
<stop offset="0.65625" stop-color="#8267D5" stop-opacity="0.1"/>
</linearGradient>
<linearGradient id="paint27_linear_2291_4712" x1="118.402" y1="101.236" x2="172.248" y2="108.17" gradientUnits="userSpaceOnUse">
<stop stop-color="#2CEBC7"/>
<stop offset="0.348958" stop-color="#4ABDCC" stop-opacity="0.2"/>
<stop offset="0.65625" stop-color="#8267D5" stop-opacity="0.1"/>
</linearGradient>
<linearGradient id="paint28_linear_2291_4712" x1="117.862" y1="99.5376" x2="175.252" y2="106.793" gradientUnits="userSpaceOnUse">
<stop stop-color="#2CEBC7"/>
<stop offset="0.348958" stop-color="#4ABDCC" stop-opacity="0.2"/>
<stop offset="0.65625" stop-color="#8267D5" stop-opacity="0.1"/>
</linearGradient>
<linearGradient id="paint29_linear_2291_4712" x1="117.244" y1="97.6084" x2="178.355" y2="105.18" gradientUnits="userSpaceOnUse">
<stop stop-color="#2CEBC7"/>
<stop offset="0.348958" stop-color="#4ABDCC" stop-opacity="0.2"/>
<stop offset="0.65625" stop-color="#8267D5" stop-opacity="0.1"/>
</linearGradient>
<linearGradient id="paint30_linear_2291_4712" x1="116.704" y1="95.6016" x2="181.622" y2="103.496" gradientUnits="userSpaceOnUse">
<stop stop-color="#2CEBC7"/>
<stop offset="0.348958" stop-color="#4ABDCC" stop-opacity="0.2"/>
<stop offset="0.65625" stop-color="#8267D5" stop-opacity="0.1"/>
</linearGradient>
<linearGradient id="paint31_linear_2291_4712" x1="116.164" y1="93.4404" x2="185.147" y2="101.686" gradientUnits="userSpaceOnUse">
<stop stop-color="#2CEBC7"/>
<stop offset="0.348958" stop-color="#4ABDCC" stop-opacity="0.2"/>
<stop offset="0.65625" stop-color="#8267D5" stop-opacity="0.1"/>
</linearGradient>
<linearGradient id="paint32_linear_2291_4712" x1="115.701" y1="91.0479" x2="188.758" y2="99.6024" gradientUnits="userSpaceOnUse">
<stop stop-color="#2CEBC7"/>
<stop offset="0.348958" stop-color="#4ABDCC" stop-opacity="0.2"/>
<stop offset="0.65625" stop-color="#8267D5" stop-opacity="0.1"/>
</linearGradient>
<linearGradient id="paint33_linear_2291_4712" x1="115.315" y1="88.501" x2="192.619" y2="97.3752" gradientUnits="userSpaceOnUse">
<stop stop-color="#2CEBC7"/>
<stop offset="0.348958" stop-color="#4ABDCC" stop-opacity="0.2"/>
<stop offset="0.65625" stop-color="#8267D5" stop-opacity="0.1"/>
</linearGradient>
<linearGradient id="paint34_linear_2291_4712" x1="114.929" y1="85.7222" x2="196.654" y2="94.9267" gradientUnits="userSpaceOnUse">
<stop stop-color="#2CEBC7"/>
<stop offset="0.348958" stop-color="#4ABDCC" stop-opacity="0.2"/>
<stop offset="0.65625" stop-color="#8267D5" stop-opacity="0.1"/>
</linearGradient>
<linearGradient id="paint35_linear_2291_4712" x1="114.697" y1="82.7896" x2="200.931" y2="92.3166" gradientUnits="userSpaceOnUse">
<stop stop-color="#2CEBC7"/>
<stop offset="0.348958" stop-color="#4ABDCC" stop-opacity="0.2"/>
<stop offset="0.65625" stop-color="#8267D5" stop-opacity="0.1"/>
</linearGradient>
<linearGradient id="paint36_linear_2291_4712" x1="111.147" y1="79.5479" x2="205.591" y2="90.1816" gradientUnits="userSpaceOnUse">
<stop stop-color="#2CEBC7"/>
<stop offset="0.348958" stop-color="#4ABDCC" stop-opacity="0.2"/>
<stop offset="0.65625" stop-color="#8267D5" stop-opacity="0.1"/>
</linearGradient>
<linearGradient id="paint37_linear_2291_4712" x1="107.211" y1="76.0747" x2="210.54" y2="87.9424" gradientUnits="userSpaceOnUse">
<stop stop-color="#2CEBC7"/>
<stop offset="0.348958" stop-color="#4ABDCC" stop-opacity="0.2"/>
<stop offset="0.65625" stop-color="#8267D5" stop-opacity="0.1"/>
</linearGradient>
<linearGradient id="paint38_linear_2291_4712" x1="102.811" y1="72.3701" x2="215.785" y2="85.6127" gradientUnits="userSpaceOnUse">
<stop stop-color="#2CEBC7"/>
<stop offset="0.348958" stop-color="#4ABDCC" stop-opacity="0.2"/>
<stop offset="0.65625" stop-color="#8267D5" stop-opacity="0.1"/>
</linearGradient>
<linearGradient id="paint39_linear_2291_4712" x1="98.0259" y1="68.3564" x2="221.153" y2="83.0574" gradientUnits="userSpaceOnUse">
<stop stop-color="#2CEBC7"/>
<stop offset="0.348958" stop-color="#4ABDCC" stop-opacity="0.2"/>
<stop offset="0.65625" stop-color="#8267D5" stop-opacity="0.1"/>
</linearGradient>
<linearGradient id="paint40_linear_2291_4712" x1="92.7004" y1="64.0342" x2="226.824" y2="80.349" gradientUnits="userSpaceOnUse">
<stop stop-color="#2CEBC7"/>
<stop offset="0.348958" stop-color="#4ABDCC" stop-opacity="0.2"/>
<stop offset="0.65625" stop-color="#8267D5" stop-opacity="0.1"/>
</linearGradient>
<linearGradient id="paint41_linear_2291_4712" x1="86.7576" y1="59.4033" x2="232.716" y2="77.5101" gradientUnits="userSpaceOnUse">
<stop stop-color="#2CEBC7"/>
<stop offset="0.348958" stop-color="#4ABDCC" stop-opacity="0.2"/>
<stop offset="0.65625" stop-color="#8267D5" stop-opacity="0.1"/>
</linearGradient>
<linearGradient id="paint42_linear_2291_4712" x1="80.3514" y1="54.4639" x2="238.82" y2="74.482" gradientUnits="userSpaceOnUse">
<stop stop-color="#2CEBC7"/>
<stop offset="0.348958" stop-color="#4ABDCC" stop-opacity="0.2"/>
<stop offset="0.65625" stop-color="#8267D5" stop-opacity="0.1"/>
</linearGradient>
<linearGradient id="paint43_linear_2291_4712" x1="73.2509" y1="49.2158" x2="245.151" y2="71.3402" gradientUnits="userSpaceOnUse">
<stop stop-color="#2CEBC7"/>
<stop offset="0.348958" stop-color="#4ABDCC" stop-opacity="0.2"/>
<stop offset="0.65625" stop-color="#8267D5" stop-opacity="0.1"/>
</linearGradient>
<linearGradient id="paint44_linear_2291_4712" x1="65.4554" y1="43.5815" x2="251.706" y2="68.0113" gradientUnits="userSpaceOnUse">
<stop stop-color="#2CEBC7"/>
<stop offset="0.348958" stop-color="#4ABDCC" stop-opacity="0.2"/>
<stop offset="0.65625" stop-color="#8267D5" stop-opacity="0.1"/>
</linearGradient>
<linearGradient id="paint45_linear_2291_4712" x1="56.9656" y1="37.561" x2="258.484" y2="64.4993" gradientUnits="userSpaceOnUse">
<stop stop-color="#2CEBC7"/>
<stop offset="0.348958" stop-color="#4ABDCC" stop-opacity="0.2"/>
<stop offset="0.65625" stop-color="#8267D5" stop-opacity="0.1"/>
</linearGradient>
<linearGradient id="paint46_linear_2291_4712" x1="47.6267" y1="31.2324" x2="265.412" y2="60.9088" gradientUnits="userSpaceOnUse">
<stop stop-color="#2CEBC7"/>
<stop offset="0.348958" stop-color="#4ABDCC" stop-opacity="0.2"/>
<stop offset="0.65625" stop-color="#8267D5" stop-opacity="0.1"/>
</linearGradient>
<linearGradient id="paint47_linear_2291_4712" x1="37.4386" y1="24.4404" x2="272.403" y2="57.066" gradientUnits="userSpaceOnUse">
<stop stop-color="#2CEBC7"/>
<stop offset="0.348958" stop-color="#4ABDCC" stop-opacity="0.2"/>
<stop offset="0.65625" stop-color="#8267D5" stop-opacity="0.1"/>
</linearGradient>
<linearGradient id="paint48_linear_2291_4712" x1="26.4019" y1="17.1855" x2="279.623" y2="53.0219" gradientUnits="userSpaceOnUse">
<stop stop-color="#2CEBC7"/>
<stop offset="0.348958" stop-color="#4ABDCC" stop-opacity="0.2"/>
<stop offset="0.65625" stop-color="#8267D5" stop-opacity="0.1"/>
</linearGradient>
<linearGradient id="paint49_linear_2291_4712" x1="14.2843" y1="9.54443" x2="286.909" y2="48.9093" gradientUnits="userSpaceOnUse">
<stop stop-color="#2CEBC7"/>
<stop offset="0.348958" stop-color="#4ABDCC" stop-opacity="0.2"/>
<stop offset="0.65625" stop-color="#8267D5" stop-opacity="0.1"/>
</linearGradient>
<linearGradient id="paint50_linear_2291_4712" x1="1.24072" y1="1.44043" x2="294.257" y2="44.5842" gradientUnits="userSpaceOnUse">
<stop stop-color="#2CEBC7"/>
<stop offset="0.348958" stop-color="#4ABDCC" stop-opacity="0.2"/>
<stop offset="0.65625" stop-color="#8267D5" stop-opacity="0.1"/>
</linearGradient>
</defs>
</svg>
