<svg width="201" height="232" viewBox="0 0 201 232" fill="none" xmlns="http://www.w3.org/2000/svg">
<path d="M99.2566 112.479L90.3124 105.306L91.6951 108.806L101.936 119.478L110.88 126.651L109.497 123.151L99.2566 112.479Z" stroke="url(#paint0_linear_2166_4414)" stroke-miterlimit="10"/>
<path d="M99.2999 112.349L89.8372 104.571L91.1334 108.201L101.892 119.651L111.355 127.429L110.059 123.756L99.2999 112.349Z" stroke="url(#paint1_linear_2166_4414)" stroke-miterlimit="10"/>
<path d="M99.343 112.219L89.3186 103.793L90.5284 107.553L101.849 119.781L111.874 128.206L110.664 124.447L99.343 112.219Z" stroke="url(#paint2_linear_2166_4414)" stroke-miterlimit="10"/>
<path d="M99.4295 112.09L88.757 102.929L89.9236 106.861L101.763 119.91L112.435 129.028L111.269 125.139L99.4295 112.09Z" stroke="url(#paint3_linear_2166_4414)" stroke-miterlimit="10"/>
<path d="M99.559 111.96L88.2383 102.065L89.2753 106.127L101.633 120.04L112.954 129.935L111.917 125.873L99.559 111.96Z" stroke="url(#paint4_linear_2166_4414)" stroke-miterlimit="10"/>
<path d="M99.6888 111.787L87.6768 101.158L88.6273 105.306L101.504 120.17L113.516 130.842L112.565 126.651L99.6888 111.787Z" stroke="url(#paint5_linear_2166_4414)" stroke-miterlimit="10"/>
<path d="M99.8182 111.658L87.1581 100.164L87.9358 104.485L101.374 120.299L114.034 131.836L113.256 127.515L99.8182 111.658Z" stroke="url(#paint6_linear_2166_4414)" stroke-miterlimit="10"/>
<path d="M99.9913 111.571L86.5966 99.127L87.2015 103.577L101.201 120.429L114.596 132.83L113.991 128.379L99.9913 111.571Z" stroke="url(#paint7_linear_2166_4414)" stroke-miterlimit="10"/>
<path d="M100.164 111.441L86.0348 98.0898L86.4669 102.627L101.028 120.558L115.157 133.91L114.725 129.33L100.164 111.441Z" stroke="url(#paint8_linear_2166_4414)" stroke-miterlimit="10"/>
<path d="M100.38 111.312L85.473 96.9666L85.6891 101.633L100.812 120.645L115.719 135.033L115.503 130.367L100.38 111.312Z" stroke="url(#paint9_linear_2166_4414)" stroke-miterlimit="10"/>
<path d="M100.639 111.226L84.9545 95.8L84.9113 100.553L100.553 120.775L116.238 136.2L116.281 131.447L100.639 111.226Z" stroke="url(#paint10_linear_2166_4414)" stroke-miterlimit="10"/>
<path d="M100.899 111.139L84.3929 94.5901L84.0905 99.4295L100.294 120.861L116.799 137.41L117.102 132.571L100.899 111.139Z" stroke="url(#paint11_linear_2166_4414)" stroke-miterlimit="10"/>
<path d="M101.244 111.052L83.8743 93.2937L83.2262 98.2195L99.948 120.947L117.318 138.706L117.966 133.737L101.244 111.052Z" stroke="url(#paint12_linear_2166_4414)" stroke-miterlimit="10"/>
<path d="M101.59 111.009L83.3559 91.9543L82.3621 96.9666L99.6023 120.991L117.836 140.002L118.83 135.033L101.59 111.009Z" stroke="url(#paint13_linear_2166_4414)" stroke-miterlimit="10"/>
<path d="M101.979 110.966L82.8805 90.615L81.4546 95.6272L99.2134 121.034L118.355 141.385L119.738 136.373L101.979 110.966Z" stroke="url(#paint14_linear_2166_4414)" stroke-miterlimit="10"/>
<path d="M102.454 110.923L82.4052 89.1458L80.5472 94.2012L98.7381 121.034L118.787 142.811L120.645 137.756L102.454 110.923Z" stroke="url(#paint15_linear_2166_4414)" stroke-miterlimit="10"/>
<path d="M102.929 110.923L81.973 87.6768L79.6398 92.7322L98.2627 121.034L119.219 144.323L121.552 139.268L102.929 110.923Z" stroke="url(#paint16_linear_2166_4414)" stroke-miterlimit="10"/>
<path d="M103.491 110.966L81.5411 86.1643L78.6893 91.1765L97.7012 121.034L119.651 145.836L122.503 140.823L103.491 110.966Z" stroke="url(#paint17_linear_2166_4414)" stroke-miterlimit="10"/>
<path d="M104.096 111.009L81.1953 84.5657L77.7386 89.5347L97.0961 120.947L119.997 147.434L123.497 142.465L104.096 111.009Z" stroke="url(#paint18_linear_2166_4414)" stroke-miterlimit="10"/>
<path d="M104.744 111.139L80.8929 82.9238L76.7449 87.8064L96.448 120.861L120.299 149.033L124.447 144.194L104.744 111.139Z" stroke="url(#paint19_linear_2166_4414)" stroke-miterlimit="10"/>
<path d="M105.522 111.269L80.6769 81.2385L75.7943 85.9915L95.6703 120.731L120.515 150.718L125.398 146.008L105.522 111.269Z" stroke="url(#paint20_linear_2166_4414)" stroke-miterlimit="10"/>
<path d="M106.3 111.442L80.504 79.5103L74.8004 84.0904L94.8925 120.559L120.688 152.447L126.392 147.866L106.3 111.442Z" stroke="url(#paint21_linear_2166_4414)" stroke-miterlimit="10"/>
<path d="M107.207 111.657L80.4177 77.7817L73.8068 82.1026L93.9852 120.342L120.775 154.218L127.386 149.854L107.207 111.657Z" stroke="url(#paint22_linear_2166_4414)" stroke-miterlimit="10"/>
<path d="M108.201 111.917L80.4609 75.967L72.8562 80.0287L92.9915 120.083L120.731 156.033L128.336 151.928L108.201 111.917Z" stroke="url(#paint23_linear_2166_4414)" stroke-miterlimit="10"/>
<path d="M109.238 112.219L80.5905 74.1091L71.9055 77.8683L91.9544 119.738L120.602 157.848L129.287 154.088L109.238 112.219Z" stroke="url(#paint24_linear_2166_4414)" stroke-miterlimit="10"/>
<path d="M110.405 112.608L80.8065 72.2512L70.9982 75.6215L90.7878 119.349L120.386 159.749L130.194 156.379L110.405 112.608Z" stroke="url(#paint25_linear_2166_4414)" stroke-miterlimit="10"/>
<path d="M111.701 113.084L81.1953 70.3501L70.0907 73.2883L89.4914 118.917L119.997 161.607L131.101 158.712L111.701 113.084Z" stroke="url(#paint26_linear_2166_4414)" stroke-miterlimit="10"/>
<path d="M113.083 113.645L81.7139 68.4487L69.2266 70.8252L88.1088 118.355L119.478 163.508L131.966 161.175L113.083 113.645Z" stroke="url(#paint27_linear_2166_4414)" stroke-miterlimit="10"/>
<path d="M114.596 114.25L82.4051 66.5476L68.4055 68.3192L86.5964 117.75L118.787 165.452L132.786 163.681L114.596 114.25Z" stroke="url(#paint28_linear_2166_4414)" stroke-miterlimit="10"/>
<path d="M116.238 114.941L83.2694 64.6465L67.671 65.6835L84.9545 117.015L117.923 167.354L133.521 166.317L116.238 114.941Z" stroke="url(#paint29_linear_2166_4414)" stroke-miterlimit="10"/>
<path d="M118.009 115.762L84.3928 62.7454L66.9797 62.9614L83.183 116.195L116.799 169.255L134.212 169.039L118.009 115.762Z" stroke="url(#paint30_linear_2166_4414)" stroke-miterlimit="10"/>
<path d="M119.91 116.713L85.689 60.8442L66.3748 60.1528L81.2818 115.287L115.503 171.113L134.817 171.847L119.91 116.713Z" stroke="url(#paint31_linear_2166_4414)" stroke-miterlimit="10"/>
<path d="M121.984 117.75L87.2878 59.0294L65.8995 57.2578L79.2078 114.25L113.904 172.971L135.293 174.699L121.984 117.75Z" stroke="url(#paint32_linear_2166_4414)" stroke-miterlimit="10"/>
<path d="M124.231 118.917L89.1026 57.2146L65.5106 54.3196L76.9609 113.083L112.09 174.742L135.682 177.68L124.231 118.917Z" stroke="url(#paint33_linear_2166_4414)" stroke-miterlimit="10"/>
<path d="M126.651 120.256L91.263 55.4862L65.2513 51.2517L74.5412 111.744L109.929 176.471L135.941 180.748L126.651 120.256Z" stroke="url(#paint34_linear_2166_4414)" stroke-miterlimit="10"/>
<path d="M129.243 121.725L93.7691 53.8442L65.1217 48.1406L71.9487 110.275L107.423 178.156L136.07 183.859L129.243 121.725Z" stroke="url(#paint35_linear_2166_4414)" stroke-miterlimit="10"/>
<path d="M132.052 123.367L96.6209 52.2888L65.1649 44.9434L69.1401 108.633L104.571 179.668L136.027 187.057L132.052 123.367Z" stroke="url(#paint36_linear_2166_4414)" stroke-miterlimit="10"/>
<path d="M135.077 125.182L99.9047 50.8629L65.4242 41.7026L66.1155 106.818L101.287 181.094L135.768 190.297L135.077 125.182Z" stroke="url(#paint37_linear_2166_4414)" stroke-miterlimit="10"/>
<path d="M138.317 127.169L103.621 49.6098L65.8995 38.4187L62.8749 104.787L97.5715 182.39L135.293 193.581L138.317 127.169Z" stroke="url(#paint38_linear_2166_4414)" stroke-miterlimit="10"/>
<path d="M141.817 129.416L107.812 48.4865L66.5909 35.0918L59.375 102.584L93.3803 183.471L134.601 196.908L141.817 129.416Z" stroke="url(#paint39_linear_2166_4414)" stroke-miterlimit="10"/>
<path d="M145.533 131.879L112.522 47.6222L67.5845 31.7214L55.6589 100.121L88.6704 184.378L133.607 200.235L145.533 131.879Z" stroke="url(#paint40_linear_2166_4414)" stroke-miterlimit="10"/>
<path d="M149.552 134.558L117.836 46.9308L68.8809 28.3511L51.6406 97.3986L83.3558 185.026L132.311 203.606L149.552 134.558Z" stroke="url(#paint41_linear_2166_4414)" stroke-miterlimit="10"/>
<path d="M153.829 137.539L123.713 46.5419L70.4797 25.0239L47.363 94.4603L77.4795 185.415L130.713 206.976L153.829 137.539Z" stroke="url(#paint42_linear_2166_4414)" stroke-miterlimit="10"/>
<path d="M158.409 140.78L130.28 46.4556L72.4672 21.6538L42.7828 91.1766L70.9117 185.501L128.725 210.303L158.409 140.78Z" stroke="url(#paint43_linear_2166_4414)" stroke-miterlimit="10"/>
<path d="M163.292 144.366L137.583 46.7148L74.8868 18.3699L37.9001 87.6334L63.6093 185.242L126.305 213.63L163.292 144.366Z" stroke="url(#paint44_linear_2166_4414)" stroke-miterlimit="10"/>
<path d="M168.52 148.255L145.663 47.4061L77.7387 15.1292L32.672 83.7446L55.5294 184.594L123.454 216.827L168.52 148.255Z" stroke="url(#paint45_linear_2166_4414)" stroke-miterlimit="10"/>
<path d="M174.094 152.49L154.607 48.4865L81.1088 12.0183L27.0979 79.5103L46.585 183.514L120.083 219.982L174.094 152.49Z" stroke="url(#paint46_linear_2166_4414)" stroke-miterlimit="10"/>
<path d="M180.014 157.113L164.459 50.0851L84.9977 8.99365L21.1785 74.8869L36.7336 181.872L116.194 223.006L180.014 157.113Z" stroke="url(#paint47_linear_2166_4414)" stroke-miterlimit="10"/>
<path d="M186.365 162.125L175.261 52.2455L89.5348 6.14185L14.8269 69.8747L25.9315 179.754L111.658 225.858L186.365 162.125Z" stroke="url(#paint48_linear_2166_4414)" stroke-miterlimit="10"/>
<path d="M193.063 167.57L187.143 55.0109L94.6764 3.46289L8.12939 64.4304L14.049 176.946L106.516 228.537L193.063 167.57Z" stroke="url(#paint49_linear_2166_4414)" stroke-miterlimit="10"/>
<path d="M200.192 173.489V58.5108L100.596 1L1 58.5108V173.489L100.596 231L200.192 173.489Z" stroke="url(#paint50_linear_2166_4414)" stroke-miterlimit="10"/>
<defs>
<linearGradient id="paint0_linear_2166_4414" x1="90.3124" y1="105.306" x2="113.158" y2="108.114" gradientUnits="userSpaceOnUse">
<stop stop-color="#2CEBC7"/>
<stop offset="0.348958" stop-color="#4ABDCC" stop-opacity="0.2"/>
<stop offset="0.65625" stop-color="#8267D5" stop-opacity="0.1"/>
</linearGradient>
<linearGradient id="paint1_linear_2166_4414" x1="89.8372" y1="104.571" x2="113.755" y2="107.443" gradientUnits="userSpaceOnUse">
<stop stop-color="#2CEBC7"/>
<stop offset="0.348958" stop-color="#4ABDCC" stop-opacity="0.2"/>
<stop offset="0.65625" stop-color="#8267D5" stop-opacity="0.1"/>
</linearGradient>
<linearGradient id="paint2_linear_2166_4414" x1="89.3186" y1="103.793" x2="114.402" y2="106.749" gradientUnits="userSpaceOnUse">
<stop stop-color="#2CEBC7"/>
<stop offset="0.348958" stop-color="#4ABDCC" stop-opacity="0.2"/>
<stop offset="0.65625" stop-color="#8267D5" stop-opacity="0.1"/>
</linearGradient>
<linearGradient id="paint3_linear_2166_4414" x1="88.757" y1="102.929" x2="115.103" y2="105.978" gradientUnits="userSpaceOnUse">
<stop stop-color="#2CEBC7"/>
<stop offset="0.348958" stop-color="#4ABDCC" stop-opacity="0.2"/>
<stop offset="0.65625" stop-color="#8267D5" stop-opacity="0.1"/>
</linearGradient>
<linearGradient id="paint4_linear_2166_4414" x1="88.2383" y1="102.065" x2="115.754" y2="105.178" gradientUnits="userSpaceOnUse">
<stop stop-color="#2CEBC7"/>
<stop offset="0.348958" stop-color="#4ABDCC" stop-opacity="0.2"/>
<stop offset="0.65625" stop-color="#8267D5" stop-opacity="0.1"/>
</linearGradient>
<linearGradient id="paint5_linear_2166_4414" x1="87.6768" y1="101.158" x2="116.457" y2="104.353" gradientUnits="userSpaceOnUse">
<stop stop-color="#2CEBC7"/>
<stop offset="0.348958" stop-color="#4ABDCC" stop-opacity="0.2"/>
<stop offset="0.65625" stop-color="#8267D5" stop-opacity="0.1"/>
</linearGradient>
<linearGradient id="paint6_linear_2166_4414" x1="87.1581" y1="100.164" x2="117.111" y2="103.406" gradientUnits="userSpaceOnUse">
<stop stop-color="#2CEBC7"/>
<stop offset="0.348958" stop-color="#4ABDCC" stop-opacity="0.2"/>
<stop offset="0.65625" stop-color="#8267D5" stop-opacity="0.1"/>
</linearGradient>
<linearGradient id="paint7_linear_2166_4414" x1="86.5966" y1="99.127" x2="117.817" y2="102.435" gradientUnits="userSpaceOnUse">
<stop stop-color="#2CEBC7"/>
<stop offset="0.348958" stop-color="#4ABDCC" stop-opacity="0.2"/>
<stop offset="0.65625" stop-color="#8267D5" stop-opacity="0.1"/>
</linearGradient>
<linearGradient id="paint8_linear_2166_4414" x1="86.0348" y1="98.0898" x2="118.523" y2="101.459" gradientUnits="userSpaceOnUse">
<stop stop-color="#2CEBC7"/>
<stop offset="0.348958" stop-color="#4ABDCC" stop-opacity="0.2"/>
<stop offset="0.65625" stop-color="#8267D5" stop-opacity="0.1"/>
</linearGradient>
<linearGradient id="paint9_linear_2166_4414" x1="85.473" y1="96.9666" x2="119.23" y2="100.388" gradientUnits="userSpaceOnUse">
<stop stop-color="#2CEBC7"/>
<stop offset="0.348958" stop-color="#4ABDCC" stop-opacity="0.2"/>
<stop offset="0.65625" stop-color="#8267D5" stop-opacity="0.1"/>
</linearGradient>
<linearGradient id="paint10_linear_2166_4414" x1="84.9113" y1="95.8" x2="119.938" y2="99.2691" gradientUnits="userSpaceOnUse">
<stop stop-color="#2CEBC7"/>
<stop offset="0.348958" stop-color="#4ABDCC" stop-opacity="0.2"/>
<stop offset="0.65625" stop-color="#8267D5" stop-opacity="0.1"/>
</linearGradient>
<linearGradient id="paint11_linear_2166_4414" x1="84.0905" y1="94.5901" x2="120.956" y2="98.2152" gradientUnits="userSpaceOnUse">
<stop stop-color="#2CEBC7"/>
<stop offset="0.348958" stop-color="#4ABDCC" stop-opacity="0.2"/>
<stop offset="0.65625" stop-color="#8267D5" stop-opacity="0.1"/>
</linearGradient>
<linearGradient id="paint12_linear_2166_4414" x1="83.2262" y1="93.2937" x2="122.028" y2="97.0797" gradientUnits="userSpaceOnUse">
<stop stop-color="#2CEBC7"/>
<stop offset="0.348958" stop-color="#4ABDCC" stop-opacity="0.2"/>
<stop offset="0.65625" stop-color="#8267D5" stop-opacity="0.1"/>
</linearGradient>
<linearGradient id="paint13_linear_2166_4414" x1="82.3621" y1="91.9543" x2="123.1" y2="95.8982" gradientUnits="userSpaceOnUse">
<stop stop-color="#2CEBC7"/>
<stop offset="0.348958" stop-color="#4ABDCC" stop-opacity="0.2"/>
<stop offset="0.65625" stop-color="#8267D5" stop-opacity="0.1"/>
</linearGradient>
<linearGradient id="paint14_linear_2166_4414" x1="81.4546" y1="90.615" x2="124.225" y2="94.7286" gradientUnits="userSpaceOnUse">
<stop stop-color="#2CEBC7"/>
<stop offset="0.348958" stop-color="#4ABDCC" stop-opacity="0.2"/>
<stop offset="0.65625" stop-color="#8267D5" stop-opacity="0.1"/>
</linearGradient>
<linearGradient id="paint15_linear_2166_4414" x1="80.5472" y1="89.1458" x2="125.352" y2="93.4159" gradientUnits="userSpaceOnUse">
<stop stop-color="#2CEBC7"/>
<stop offset="0.348958" stop-color="#4ABDCC" stop-opacity="0.2"/>
<stop offset="0.65625" stop-color="#8267D5" stop-opacity="0.1"/>
</linearGradient>
<linearGradient id="paint16_linear_2166_4414" x1="79.6398" y1="87.6768" x2="126.481" y2="92.0974" gradientUnits="userSpaceOnUse">
<stop stop-color="#2CEBC7"/>
<stop offset="0.348958" stop-color="#4ABDCC" stop-opacity="0.2"/>
<stop offset="0.65625" stop-color="#8267D5" stop-opacity="0.1"/>
</linearGradient>
<linearGradient id="paint17_linear_2166_4414" x1="78.6893" y1="86.1643" x2="127.662" y2="90.7508" gradientUnits="userSpaceOnUse">
<stop stop-color="#2CEBC7"/>
<stop offset="0.348958" stop-color="#4ABDCC" stop-opacity="0.2"/>
<stop offset="0.65625" stop-color="#8267D5" stop-opacity="0.1"/>
</linearGradient>
<linearGradient id="paint18_linear_2166_4414" x1="77.7386" y1="84.5657" x2="128.892" y2="89.3146" gradientUnits="userSpaceOnUse">
<stop stop-color="#2CEBC7"/>
<stop offset="0.348958" stop-color="#4ABDCC" stop-opacity="0.2"/>
<stop offset="0.65625" stop-color="#8267D5" stop-opacity="0.1"/>
</linearGradient>
<linearGradient id="paint19_linear_2166_4414" x1="76.7449" y1="82.9238" x2="130.08" y2="87.8326" gradientUnits="userSpaceOnUse">
<stop stop-color="#2CEBC7"/>
<stop offset="0.348958" stop-color="#4ABDCC" stop-opacity="0.2"/>
<stop offset="0.65625" stop-color="#8267D5" stop-opacity="0.1"/>
</linearGradient>
<linearGradient id="paint20_linear_2166_4414" x1="75.7943" y1="81.2385" x2="131.265" y2="86.2898" gradientUnits="userSpaceOnUse">
<stop stop-color="#2CEBC7"/>
<stop offset="0.348958" stop-color="#4ABDCC" stop-opacity="0.2"/>
<stop offset="0.65625" stop-color="#8267D5" stop-opacity="0.1"/>
</linearGradient>
<linearGradient id="paint21_linear_2166_4414" x1="74.8004" y1="79.5103" x2="132.502" y2="84.7163" gradientUnits="userSpaceOnUse">
<stop stop-color="#2CEBC7"/>
<stop offset="0.348958" stop-color="#4ABDCC" stop-opacity="0.2"/>
<stop offset="0.65625" stop-color="#8267D5" stop-opacity="0.1"/>
</linearGradient>
<linearGradient id="paint22_linear_2166_4414" x1="73.8068" y1="77.7817" x2="133.74" y2="83.1403" gradientUnits="userSpaceOnUse">
<stop stop-color="#2CEBC7"/>
<stop offset="0.348958" stop-color="#4ABDCC" stop-opacity="0.2"/>
<stop offset="0.65625" stop-color="#8267D5" stop-opacity="0.1"/>
</linearGradient>
<linearGradient id="paint23_linear_2166_4414" x1="72.8562" y1="75.967" x2="134.928" y2="81.4532" gradientUnits="userSpaceOnUse">
<stop stop-color="#2CEBC7"/>
<stop offset="0.348958" stop-color="#4ABDCC" stop-opacity="0.2"/>
<stop offset="0.65625" stop-color="#8267D5" stop-opacity="0.1"/>
</linearGradient>
<linearGradient id="paint24_linear_2166_4414" x1="71.9055" y1="74.1091" x2="136.115" y2="79.7213" gradientUnits="userSpaceOnUse">
<stop stop-color="#2CEBC7"/>
<stop offset="0.348958" stop-color="#4ABDCC" stop-opacity="0.2"/>
<stop offset="0.65625" stop-color="#8267D5" stop-opacity="0.1"/>
</linearGradient>
<linearGradient id="paint25_linear_2166_4414" x1="70.9982" y1="72.2512" x2="137.251" y2="77.9684" gradientUnits="userSpaceOnUse">
<stop stop-color="#2CEBC7"/>
<stop offset="0.348958" stop-color="#4ABDCC" stop-opacity="0.2"/>
<stop offset="0.65625" stop-color="#8267D5" stop-opacity="0.1"/>
</linearGradient>
<linearGradient id="paint26_linear_2166_4414" x1="70.0907" y1="70.3501" x2="138.387" y2="76.1741" gradientUnits="userSpaceOnUse">
<stop stop-color="#2CEBC7"/>
<stop offset="0.348958" stop-color="#4ABDCC" stop-opacity="0.2"/>
<stop offset="0.65625" stop-color="#8267D5" stop-opacity="0.1"/>
</linearGradient>
<linearGradient id="paint27_linear_2166_4414" x1="69.2266" y1="68.4487" x2="139.47" y2="74.3621" gradientUnits="userSpaceOnUse">
<stop stop-color="#2CEBC7"/>
<stop offset="0.348958" stop-color="#4ABDCC" stop-opacity="0.2"/>
<stop offset="0.65625" stop-color="#8267D5" stop-opacity="0.1"/>
</linearGradient>
<linearGradient id="paint28_linear_2166_4414" x1="68.4055" y1="66.5476" x2="140.501" y2="72.5336" gradientUnits="userSpaceOnUse">
<stop stop-color="#2CEBC7"/>
<stop offset="0.348958" stop-color="#4ABDCC" stop-opacity="0.2"/>
<stop offset="0.65625" stop-color="#8267D5" stop-opacity="0.1"/>
</linearGradient>
<linearGradient id="paint29_linear_2166_4414" x1="67.671" y1="64.6465" x2="141.427" y2="70.6782" gradientUnits="userSpaceOnUse">
<stop stop-color="#2CEBC7"/>
<stop offset="0.348958" stop-color="#4ABDCC" stop-opacity="0.2"/>
<stop offset="0.65625" stop-color="#8267D5" stop-opacity="0.1"/>
</linearGradient>
<linearGradient id="paint30_linear_2166_4414" x1="66.9797" y1="62.7454" x2="142.3" y2="68.8098" gradientUnits="userSpaceOnUse">
<stop stop-color="#2CEBC7"/>
<stop offset="0.348958" stop-color="#4ABDCC" stop-opacity="0.2"/>
<stop offset="0.65625" stop-color="#8267D5" stop-opacity="0.1"/>
</linearGradient>
<linearGradient id="paint31_linear_2166_4414" x1="66.3748" y1="60.1528" x2="143.079" y2="66.1479" gradientUnits="userSpaceOnUse">
<stop stop-color="#2CEBC7"/>
<stop offset="0.348958" stop-color="#4ABDCC" stop-opacity="0.2"/>
<stop offset="0.65625" stop-color="#8267D5" stop-opacity="0.1"/>
</linearGradient>
<linearGradient id="paint32_linear_2166_4414" x1="65.8995" y1="57.2578" x2="143.702" y2="63.1215" gradientUnits="userSpaceOnUse">
<stop stop-color="#2CEBC7"/>
<stop offset="0.348958" stop-color="#4ABDCC" stop-opacity="0.2"/>
<stop offset="0.65625" stop-color="#8267D5" stop-opacity="0.1"/>
</linearGradient>
<linearGradient id="paint33_linear_2166_4414" x1="65.5106" y1="54.3196" x2="144.218" y2="60.0301" gradientUnits="userSpaceOnUse">
<stop stop-color="#2CEBC7"/>
<stop offset="0.348958" stop-color="#4ABDCC" stop-opacity="0.2"/>
<stop offset="0.65625" stop-color="#8267D5" stop-opacity="0.1"/>
</linearGradient>
<linearGradient id="paint34_linear_2166_4414" x1="65.2513" y1="51.2517" x2="144.573" y2="56.7747" gradientUnits="userSpaceOnUse">
<stop stop-color="#2CEBC7"/>
<stop offset="0.348958" stop-color="#4ABDCC" stop-opacity="0.2"/>
<stop offset="0.65625" stop-color="#8267D5" stop-opacity="0.1"/>
</linearGradient>
<linearGradient id="paint35_linear_2166_4414" x1="65.1217" y1="48.1406" x2="144.766" y2="53.4512" gradientUnits="userSpaceOnUse">
<stop stop-color="#2CEBC7"/>
<stop offset="0.348958" stop-color="#4ABDCC" stop-opacity="0.2"/>
<stop offset="0.65625" stop-color="#8267D5" stop-opacity="0.1"/>
</linearGradient>
<linearGradient id="paint36_linear_2166_4414" x1="65.1649" y1="44.9434" x2="144.744" y2="50.0047" gradientUnits="userSpaceOnUse">
<stop stop-color="#2CEBC7"/>
<stop offset="0.348958" stop-color="#4ABDCC" stop-opacity="0.2"/>
<stop offset="0.65625" stop-color="#8267D5" stop-opacity="0.1"/>
</linearGradient>
<linearGradient id="paint37_linear_2166_4414" x1="65.4242" y1="41.7026" x2="144.452" y2="46.4745" gradientUnits="userSpaceOnUse">
<stop stop-color="#2CEBC7"/>
<stop offset="0.348958" stop-color="#4ABDCC" stop-opacity="0.2"/>
<stop offset="0.65625" stop-color="#8267D5" stop-opacity="0.1"/>
</linearGradient>
<linearGradient id="paint38_linear_2166_4414" x1="62.8749" y1="38.4187" x2="147.614" y2="43.674" gradientUnits="userSpaceOnUse">
<stop stop-color="#2CEBC7"/>
<stop offset="0.348958" stop-color="#4ABDCC" stop-opacity="0.2"/>
<stop offset="0.65625" stop-color="#8267D5" stop-opacity="0.1"/>
</linearGradient>
<linearGradient id="paint39_linear_2166_4414" x1="59.375" y1="35.0918" x2="151.942" y2="41.1072" gradientUnits="userSpaceOnUse">
<stop stop-color="#2CEBC7"/>
<stop offset="0.348958" stop-color="#4ABDCC" stop-opacity="0.2"/>
<stop offset="0.65625" stop-color="#8267D5" stop-opacity="0.1"/>
</linearGradient>
<linearGradient id="paint40_linear_2166_4414" x1="55.6589" y1="31.7214" x2="156.53" y2="38.5834" gradientUnits="userSpaceOnUse">
<stop stop-color="#2CEBC7"/>
<stop offset="0.348958" stop-color="#4ABDCC" stop-opacity="0.2"/>
<stop offset="0.65625" stop-color="#8267D5" stop-opacity="0.1"/>
</linearGradient>
<linearGradient id="paint41_linear_2166_4414" x1="51.6406" y1="28.3511" x2="161.482" y2="36.1784" gradientUnits="userSpaceOnUse">
<stop stop-color="#2CEBC7"/>
<stop offset="0.348958" stop-color="#4ABDCC" stop-opacity="0.2"/>
<stop offset="0.65625" stop-color="#8267D5" stop-opacity="0.1"/>
</linearGradient>
<linearGradient id="paint42_linear_2166_4414" x1="47.363" y1="25.0239" x2="166.744" y2="33.9339" gradientUnits="userSpaceOnUse">
<stop stop-color="#2CEBC7"/>
<stop offset="0.348958" stop-color="#4ABDCC" stop-opacity="0.2"/>
<stop offset="0.65625" stop-color="#8267D5" stop-opacity="0.1"/>
</linearGradient>
<linearGradient id="paint43_linear_2166_4414" x1="42.7828" y1="21.6538" x2="172.366" y2="31.7844" gradientUnits="userSpaceOnUse">
<stop stop-color="#2CEBC7"/>
<stop offset="0.348958" stop-color="#4ABDCC" stop-opacity="0.2"/>
<stop offset="0.65625" stop-color="#8267D5" stop-opacity="0.1"/>
</linearGradient>
<linearGradient id="paint44_linear_2166_4414" x1="37.9001" y1="18.3699" x2="178.343" y2="29.8736" gradientUnits="userSpaceOnUse">
<stop stop-color="#2CEBC7"/>
<stop offset="0.348958" stop-color="#4ABDCC" stop-opacity="0.2"/>
<stop offset="0.65625" stop-color="#8267D5" stop-opacity="0.1"/>
</linearGradient>
<linearGradient id="paint45_linear_2166_4414" x1="32.672" y1="15.1292" x2="184.726" y2="28.1918" gradientUnits="userSpaceOnUse">
<stop stop-color="#2CEBC7"/>
<stop offset="0.348958" stop-color="#4ABDCC" stop-opacity="0.2"/>
<stop offset="0.65625" stop-color="#8267D5" stop-opacity="0.1"/>
</linearGradient>
<linearGradient id="paint46_linear_2166_4414" x1="27.0979" y1="12.0183" x2="191.507" y2="26.841" gradientUnits="userSpaceOnUse">
<stop stop-color="#2CEBC7"/>
<stop offset="0.348958" stop-color="#4ABDCC" stop-opacity="0.2"/>
<stop offset="0.65625" stop-color="#8267D5" stop-opacity="0.1"/>
</linearGradient>
<linearGradient id="paint47_linear_2166_4414" x1="21.1785" y1="8.99365" x2="198.683" y2="25.7971" gradientUnits="userSpaceOnUse">
<stop stop-color="#2CEBC7"/>
<stop offset="0.348958" stop-color="#4ABDCC" stop-opacity="0.2"/>
<stop offset="0.65625" stop-color="#8267D5" stop-opacity="0.1"/>
</linearGradient>
<linearGradient id="paint48_linear_2166_4414" x1="14.8269" y1="6.14185" x2="206.346" y2="25.2138" gradientUnits="userSpaceOnUse">
<stop stop-color="#2CEBC7"/>
<stop offset="0.348958" stop-color="#4ABDCC" stop-opacity="0.2"/>
<stop offset="0.65625" stop-color="#8267D5" stop-opacity="0.1"/>
</linearGradient>
<linearGradient id="paint49_linear_2166_4414" x1="8.12939" y1="3.46289" x2="214.386" y2="25.0791" gradientUnits="userSpaceOnUse">
<stop stop-color="#2CEBC7"/>
<stop offset="0.348958" stop-color="#4ABDCC" stop-opacity="0.2"/>
<stop offset="0.65625" stop-color="#8267D5" stop-opacity="0.1"/>
</linearGradient>
<linearGradient id="paint50_linear_2166_4414" x1="1" y1="1" x2="222.892" y2="25.5115" gradientUnits="userSpaceOnUse">
<stop stop-color="#2CEBC7"/>
<stop offset="0.348958" stop-color="#4ABDCC" stop-opacity="0.2"/>
<stop offset="0.65625" stop-color="#8267D5" stop-opacity="0.1"/>
</linearGradient>
</defs>
</svg>
