<svg width="218" height="237" viewBox="0 0 218 237" fill="none" xmlns="http://www.w3.org/2000/svg">
<path d="M110.66 121.388C118.913 117.003 124.864 112.054 123.95 110.335C123.037 108.615 115.605 110.776 107.351 115.161C99.0979 119.547 93.1476 124.495 94.0612 126.215C94.9748 127.934 102.406 125.773 110.66 121.388Z" stroke="url(#paint0_linear_2166_4362)" stroke-miterlimit="10"/>
<path d="M110.787 121.466C119.605 116.556 125.96 111.15 124.981 109.392C124.002 107.634 116.06 110.19 107.242 115.1C98.4245 120.01 92.0698 125.415 93.0486 127.173C94.0275 128.931 101.969 126.376 110.787 121.466Z" stroke="url(#paint1_linear_2166_4362)" stroke-miterlimit="10"/>
<path d="M110.952 121.518C120.376 116.032 127.169 110.13 126.124 108.335C125.079 106.54 116.592 109.532 107.168 115.018C97.7437 120.503 90.9509 126.406 91.9959 128.201C93.0408 129.996 101.528 127.004 110.952 121.518Z" stroke="url(#paint2_linear_2166_4362)" stroke-miterlimit="10"/>
<path d="M110.98 121.624C121.022 115.528 128.262 109.102 127.15 107.271C126.039 105.44 116.998 108.898 106.956 114.994C96.9138 121.09 89.6742 127.515 90.7856 129.346C91.897 131.177 100.938 127.72 110.98 121.624Z" stroke="url(#paint3_linear_2166_4362)" stroke-miterlimit="10"/>
<path d="M111.167 121.679C121.84 114.936 129.535 107.957 128.357 106.091C127.178 104.225 117.571 108.18 106.898 114.924C96.2262 121.667 88.5303 128.646 89.7092 130.512C90.888 132.378 100.495 128.423 111.167 121.679Z" stroke="url(#paint4_linear_2166_4362)" stroke-miterlimit="10"/>
<path d="M111.265 121.708C122.604 114.263 130.785 106.687 129.538 104.788C128.291 102.889 118.088 107.386 106.749 114.832C95.4105 122.278 87.2293 129.853 88.4762 131.752C89.7231 133.651 99.926 129.154 111.265 121.708Z" stroke="url(#paint5_linear_2166_4362)" stroke-miterlimit="10"/>
<path d="M111.367 121.855C123.382 113.67 132.04 105.447 130.706 103.489C129.373 101.532 118.552 106.58 106.537 114.765C94.5224 122.95 85.8638 131.173 87.1975 133.13C88.5313 135.088 99.3523 130.04 111.367 121.855Z" stroke="url(#paint6_linear_2166_4362)" stroke-miterlimit="10"/>
<path d="M111.528 121.943C124.253 112.959 133.415 104.044 131.993 102.029C130.57 100.014 119.102 105.663 106.377 114.647C93.6523 123.63 84.4898 132.545 85.9122 134.56C87.3345 136.575 98.8031 130.926 111.528 121.943Z" stroke="url(#paint7_linear_2166_4362)" stroke-miterlimit="10"/>
<path d="M111.732 122.013C125.147 112.21 134.796 102.585 133.284 100.515C131.771 98.445 119.67 104.714 106.254 114.517C92.8391 124.32 83.1901 133.945 84.7027 136.015C86.2152 138.085 98.3167 131.816 111.732 122.013Z" stroke="url(#paint8_linear_2166_4362)" stroke-miterlimit="10"/>
<path d="M111.914 122.189C126.051 111.508 136.212 101.128 134.608 99.0052C133.004 96.882 120.242 103.819 106.105 114.5C91.9668 125.181 81.8062 135.561 83.4103 137.684C85.0144 139.807 97.7757 132.87 111.914 122.189Z" stroke="url(#paint9_linear_2166_4362)" stroke-miterlimit="10"/>
<path d="M112.172 122.25C127.061 110.627 137.738 99.4212 136.021 97.2212C134.303 95.0212 120.841 102.66 105.952 114.283C91.0638 125.906 80.3865 137.112 82.104 139.312C83.8215 141.512 97.2835 133.873 112.172 122.25Z" stroke="url(#paint10_linear_2166_4362)" stroke-miterlimit="10"/>
<path d="M112.307 122.438C127.922 109.853 139.095 97.808 137.262 95.534C135.43 93.2599 121.285 101.618 105.67 114.203C90.0551 126.788 78.8823 138.833 80.7151 141.107C82.5478 143.381 96.692 135.023 112.307 122.438Z" stroke="url(#paint11_linear_2166_4362)" stroke-miterlimit="10"/>
<path d="M112.472 122.536C128.839 108.924 140.525 95.9884 138.575 93.6432C136.625 91.298 121.776 100.431 105.409 114.043C89.0424 127.655 77.3558 140.591 79.3063 142.936C81.2568 145.281 96.1057 136.148 112.472 122.536Z" stroke="url(#paint12_linear_2166_4362)" stroke-miterlimit="10"/>
<path d="M112.749 122.631C129.868 107.946 142.066 94.0847 139.996 91.6708C137.925 89.257 122.369 99.2047 105.25 113.89C88.1318 128.575 75.933 142.436 78.0037 144.85C80.0744 147.264 95.6304 137.316 112.749 122.631Z" stroke="url(#paint13_linear_2166_4362)" stroke-miterlimit="10"/>
<path d="M113.038 122.833C130.93 107.009 143.639 92.1516 141.425 89.6477C139.21 87.1438 122.911 97.9415 105.019 113.765C87.1266 129.589 74.4175 144.446 76.6319 146.95C78.8464 149.454 95.1458 138.656 113.038 122.833Z" stroke="url(#paint14_linear_2166_4362)" stroke-miterlimit="10"/>
<path d="M113.311 123.035C131.945 106.047 145.119 90.157 142.736 87.5429C140.353 84.9289 123.315 96.5808 104.681 113.568C86.0474 130.556 72.8734 146.446 75.2564 149.06C77.6395 151.674 94.6772 140.022 113.311 123.035Z" stroke="url(#paint15_linear_2166_4362)" stroke-miterlimit="10"/>
<path d="M113.672 123.193C133.042 104.992 146.673 88.033 144.117 85.3131C141.562 82.5932 123.787 95.143 104.417 113.344C85.047 131.544 71.4161 148.504 73.9718 151.224C76.5274 153.944 94.3019 141.394 113.672 123.193Z" stroke="url(#paint16_linear_2166_4362)" stroke-miterlimit="10"/>
<path d="M113.988 123.372C134.084 103.91 148.161 85.8471 145.429 83.0262C142.697 80.2052 124.192 93.6948 104.095 113.156C83.999 132.617 69.9223 150.681 72.6541 153.502C75.3859 156.323 93.8917 142.833 113.988 123.372Z" stroke="url(#paint17_linear_2166_4362)" stroke-miterlimit="10"/>
<path d="M114.309 123.643C135.142 102.851 149.652 83.6119 146.718 80.6718C143.784 77.7317 124.516 92.2036 103.683 112.996C82.8494 133.788 68.3393 153.027 71.2736 155.967C74.2078 158.907 93.4753 144.435 114.309 123.643Z" stroke="url(#paint18_linear_2166_4362)" stroke-miterlimit="10"/>
<path d="M114.709 123.826C136.22 101.695 151.111 81.2789 147.97 78.2253C144.828 75.1717 124.843 90.6371 103.333 112.768C81.8219 134.899 66.9308 155.315 70.0725 158.369C73.2141 161.422 93.1987 145.957 114.709 123.826Z" stroke="url(#paint19_linear_2166_4362)" stroke-miterlimit="10"/>
<path d="M115.151 124.064C137.343 100.52 152.576 78.8348 149.176 75.6295C145.775 72.4242 125.028 88.9124 102.836 112.457C80.644 136.001 65.4106 157.686 68.8112 160.892C72.2118 164.097 92.9587 147.609 115.151 124.064Z" stroke="url(#paint20_linear_2166_4362)" stroke-miterlimit="10"/>
<path d="M115.605 124.318C138.438 99.3319 153.997 76.3791 150.355 73.0515C146.714 69.7239 125.252 87.2816 102.418 112.268C79.5849 137.254 64.0266 160.207 67.6679 163.534C71.3092 166.862 92.7713 149.304 115.605 124.318Z" stroke="url(#paint21_linear_2166_4362)" stroke-miterlimit="10"/>
<path d="M116.103 124.547C139.53 98.0877 155.331 73.8131 151.394 70.328C147.458 66.843 125.276 85.4673 101.849 111.927C78.4222 138.386 62.6216 162.66 66.5577 166.145C70.4938 169.63 92.676 151.006 116.103 124.547Z" stroke="url(#paint22_linear_2166_4362)" stroke-miterlimit="10"/>
<path d="M116.739 124.929C140.739 96.9445 156.739 71.2957 152.478 67.6408C148.216 63.986 125.306 83.7091 101.306 111.694C77.3069 139.678 61.3064 165.327 65.5681 168.982C69.8298 172.637 92.74 152.914 116.739 124.929Z" stroke="url(#paint23_linear_2166_4362)" stroke-miterlimit="10"/>
<path d="M117.293 125.212C141.789 95.6958 157.921 68.6766 153.327 64.8634C148.732 61.0502 125.149 81.887 100.654 111.404C76.1582 140.92 60.0254 167.94 64.6202 171.753C69.215 175.566 92.7974 154.729 117.293 125.212Z" stroke="url(#paint24_linear_2166_4362)" stroke-miterlimit="10"/>
<path d="M118.018 125.47C142.977 94.3609 159.168 65.8987 154.182 61.898C149.195 57.8972 124.919 79.8729 99.9603 110.982C75.0012 142.091 58.8102 170.553 63.7968 174.554C68.7834 178.555 93.0592 156.579 118.018 125.47Z" stroke="url(#paint25_linear_2166_4362)" stroke-miterlimit="10"/>
<path d="M118.795 125.86C144.142 93.1563 160.302 63.2441 154.89 59.0494C149.478 54.8547 124.543 77.9659 99.1957 110.67C73.8486 143.374 57.6881 173.286 63.1003 177.48C68.5124 181.675 93.4477 158.564 118.795 125.86Z" stroke="url(#paint26_linear_2166_4362)" stroke-miterlimit="10"/>
<path d="M119.672 126.309C145.346 91.979 161.377 60.5729 155.478 56.161C149.579 51.7492 123.983 76.0023 98.3089 110.332C72.6346 144.661 56.6038 176.067 62.5029 180.479C68.4021 184.891 93.9975 160.638 119.672 126.309Z" stroke="url(#paint27_linear_2166_4362)" stroke-miterlimit="10"/>
<path d="M120.563 126.634C146.459 90.6959 162.265 57.8251 155.867 53.215C149.47 48.6049 123.29 74.0014 97.3944 109.939C71.4984 145.878 55.6919 178.748 62.0897 183.358C68.4875 187.969 94.6667 162.572 120.563 126.634Z" stroke="url(#paint28_linear_2166_4362)" stroke-miterlimit="10"/>
<path d="M121.599 127.051C147.649 89.4739 163.102 55.0852 156.115 50.2414C149.127 45.3976 122.346 71.9328 96.2962 109.509C70.2468 147.086 54.7938 181.475 61.7811 186.319C68.7684 191.162 95.55 164.627 121.599 127.051Z" stroke="url(#paint29_linear_2166_4362)" stroke-miterlimit="10"/>
<path d="M122.835 127.461C148.95 88.2382 163.922 52.3157 156.277 47.226C148.633 42.1363 121.266 69.8067 95.1516 109.03C69.0376 148.253 54.0652 184.175 61.7098 189.265C69.3545 194.355 96.7214 166.684 122.835 127.461Z" stroke="url(#paint30_linear_2166_4362)" stroke-miterlimit="10"/>
<path d="M124.136 127.886C150.22 87.0148 164.601 49.5651 156.258 44.2401C147.914 38.915 120.004 67.7311 93.9203 108.602C67.8363 149.474 53.4551 186.923 61.799 192.249C70.1429 197.574 98.0522 168.758 124.136 127.886Z" stroke="url(#paint31_linear_2166_4362)" stroke-miterlimit="10"/>
<path d="M125.623 128.384C151.542 85.9185 165.12 46.9566 155.951 41.3602C146.782 35.7638 118.338 65.6522 92.4186 108.118C66.4995 150.584 52.9208 189.546 62.0898 195.142C71.2589 200.738 99.7035 170.85 125.623 128.384Z" stroke="url(#paint32_linear_2166_4362)" stroke-miterlimit="10"/>
<path d="M127.208 128.875C152.862 84.8162 165.519 44.3604 155.479 38.5143C145.439 32.6682 116.503 63.6457 90.8491 107.704C65.1949 151.763 52.5372 192.219 62.5773 198.065C72.6174 203.911 101.553 172.934 127.208 128.875Z" stroke="url(#paint33_linear_2166_4362)" stroke-miterlimit="10"/>
<path d="M128.941 129.348C154.202 83.7271 165.729 41.7868 154.685 35.6718C143.642 29.5568 114.211 61.5828 88.9495 107.204C63.6878 152.825 52.1616 194.766 63.2049 200.881C74.2483 206.995 103.679 174.969 128.941 129.348Z" stroke="url(#paint34_linear_2166_4362)" stroke-miterlimit="10"/>
<path d="M131.066 129.909C155.818 82.7584 166.008 39.3506 153.825 32.9551C141.642 26.5596 111.7 59.5983 86.9481 106.749C62.1957 153.9 52.0061 197.308 64.1889 203.703C76.3717 210.099 106.313 177.06 131.066 129.909Z" stroke="url(#paint35_linear_2166_4362)" stroke-miterlimit="10"/>
<path d="M133.354 130.357C157.451 81.7405 166.095 36.9312 152.662 30.2729C139.228 23.6146 108.804 57.6286 84.707 106.245C60.6102 154.862 51.966 199.671 65.3996 206.33C78.8331 212.988 109.257 178.974 133.354 130.357Z" stroke="url(#paint36_linear_2166_4362)" stroke-miterlimit="10"/>
<path d="M135.936 130.807C159.248 80.767 166.102 34.5916 151.246 27.6708C136.39 20.75 105.449 55.7047 82.1382 105.744C58.8269 155.784 51.9725 201.959 66.8284 208.88C81.6844 215.801 112.625 180.846 135.936 130.807Z" stroke="url(#paint37_linear_2166_4362)" stroke-miterlimit="10"/>
<path d="M138.702 131.224C161.081 79.8428 165.909 32.3912 149.486 25.2383C133.063 18.0855 101.608 53.94 79.2292 105.322C56.8506 156.703 52.0227 204.155 68.4458 211.308C84.8689 218.461 116.324 182.606 138.702 131.224Z" stroke="url(#paint38_linear_2166_4362)" stroke-miterlimit="10"/>
<path d="M141.979 131.682C163.287 79.0429 165.784 30.3886 147.556 23.0099C129.327 15.6313 97.2768 52.3225 75.9688 104.962C54.6609 157.602 52.1643 206.256 70.3927 213.635C88.621 221.013 120.671 184.322 141.979 131.682Z" stroke="url(#paint39_linear_2166_4362)" stroke-miterlimit="10"/>
<path d="M145.57 131.949C165.662 78.1388 165.562 28.3977 145.345 20.8489C125.128 13.3 92.4513 50.8019 72.3588 104.612C52.2662 158.421 52.3669 208.163 72.5836 215.711C92.8003 223.26 125.477 185.758 145.57 131.949Z" stroke="url(#paint40_linear_2166_4362)" stroke-miterlimit="10"/>
<path d="M149.683 132.212C168.426 77.3349 165.397 26.624 142.918 18.9464C120.439 11.2689 87.0214 49.532 68.2785 104.41C49.5356 159.287 52.5644 209.998 75.0437 217.676C97.5229 225.353 130.94 187.09 149.683 132.212Z" stroke="url(#paint41_linear_2166_4362)" stroke-miterlimit="10"/>
<path d="M154.297 132.291C171.557 76.4514 165.265 24.9154 140.244 17.1818C115.223 9.4483 80.9485 48.4457 63.6893 104.285C46.4302 160.124 52.7223 211.66 77.743 219.394C102.764 227.127 137.038 188.13 154.297 132.291Z" stroke="url(#paint42_linear_2166_4362)" stroke-miterlimit="10"/>
<path d="M159.401 132.216C175.057 75.504 165.155 23.2929 137.284 15.5987C109.414 7.90451 74.1279 47.6408 58.4718 104.352C42.8157 161.064 52.7177 213.275 80.5887 220.969C108.46 228.663 143.745 188.927 159.401 132.216Z" stroke="url(#paint43_linear_2166_4362)" stroke-miterlimit="10"/>
<path d="M165.244 131.936C179.186 74.4758 165.306 21.7849 134.243 14.2475C103.179 6.71011 66.6942 47.1805 52.7519 104.641C38.8097 162.101 52.6894 214.792 83.7532 222.329C114.817 229.866 151.302 189.396 165.244 131.936Z" stroke="url(#paint44_linear_2166_4362)" stroke-miterlimit="10"/>
<path d="M171.68 131.368C183.799 73.2974 165.554 20.3636 130.927 13.137C96.3012 5.91034 58.4062 47.1274 46.2866 105.198C34.1671 163.268 52.4124 216.202 87.0388 223.429C121.665 230.656 159.56 189.438 171.68 131.368Z" stroke="url(#paint45_linear_2166_4362)" stroke-miterlimit="10"/>
<path d="M178.956 130.511C189.175 71.9125 166.128 18.9451 127.478 12.2046C88.8279 5.46413 49.2115 47.503 38.9921 106.101C28.7727 164.699 51.8201 217.667 90.4699 224.407C129.12 231.148 168.736 189.109 178.956 130.511Z" stroke="url(#paint46_linear_2166_4362)" stroke-miterlimit="10"/>
<path d="M187.028 129.153C195.274 70.1427 167.019 17.4232 123.919 11.4003C80.8183 5.3774 39.1938 48.3318 30.9477 107.342C22.7015 166.352 50.9565 219.071 94.0568 225.094C137.157 231.117 178.782 188.162 187.028 129.153Z" stroke="url(#paint47_linear_2166_4362)" stroke-miterlimit="10"/>
<path d="M195.948 127.421C202.166 68.1343 168.25 15.9876 120.195 10.9477C72.1397 5.90782 28.1427 49.8833 21.9249 109.17C15.7071 168.456 49.6231 220.603 97.6784 225.643C145.734 230.683 189.731 186.707 195.948 127.421Z" stroke="url(#paint48_linear_2166_4362)" stroke-miterlimit="10"/>
<path d="M205.964 125.029C210.124 65.525 170.089 14.2526 116.542 10.5084C62.9955 6.76415 16.2143 51.966 12.0536 111.47C7.89285 170.973 47.9281 222.246 101.475 225.99C155.022 229.734 201.803 184.532 205.964 125.029Z" stroke="url(#paint49_linear_2166_4362)" stroke-miterlimit="10"/>
<path d="M109 226.287C168.647 226.287 217 177.933 217 118.287C217 58.6399 168.647 10.2866 109 10.2866C49.3533 10.2866 1 58.6399 1 118.287C1 177.933 49.3533 226.287 109 226.287Z" stroke="url(#paint50_linear_2166_4362)" stroke-miterlimit="10"/>
<defs>
<linearGradient id="paint0_linear_2166_4362" x1="92.407" y1="123.102" x2="124.894" y2="125.085" gradientUnits="userSpaceOnUse">
<stop stop-color="#2CEBC7"/>
<stop offset="0.348958" stop-color="#4ABDCC" stop-opacity="0.2"/>
<stop offset="0.65625" stop-color="#8267D5" stop-opacity="0.1"/>
</linearGradient>
<linearGradient id="paint1_linear_2166_4362" x1="91.2762" y1="123.99" x2="125.925" y2="126.11" gradientUnits="userSpaceOnUse">
<stop stop-color="#2CEBC7"/>
<stop offset="0.348958" stop-color="#4ABDCC" stop-opacity="0.2"/>
<stop offset="0.65625" stop-color="#8267D5" stop-opacity="0.1"/>
</linearGradient>
<linearGradient id="paint2_linear_2166_4362" x1="90.1039" y1="124.95" x2="127.027" y2="127.277" gradientUnits="userSpaceOnUse">
<stop stop-color="#2CEBC7"/>
<stop offset="0.348958" stop-color="#4ABDCC" stop-opacity="0.2"/>
<stop offset="0.65625" stop-color="#8267D5" stop-opacity="0.1"/>
</linearGradient>
<linearGradient id="paint3_linear_2166_4362" x1="88.7732" y1="126.031" x2="127.994" y2="128.579" gradientUnits="userSpaceOnUse">
<stop stop-color="#2CEBC7"/>
<stop offset="0.348958" stop-color="#4ABDCC" stop-opacity="0.2"/>
<stop offset="0.65625" stop-color="#8267D5" stop-opacity="0.1"/>
</linearGradient>
<linearGradient id="paint4_linear_2166_4362" x1="87.5747" y1="127.134" x2="129.123" y2="129.915" gradientUnits="userSpaceOnUse">
<stop stop-color="#2CEBC7"/>
<stop offset="0.348958" stop-color="#4ABDCC" stop-opacity="0.2"/>
<stop offset="0.65625" stop-color="#8267D5" stop-opacity="0.1"/>
</linearGradient>
<linearGradient id="paint5_linear_2166_4362" x1="86.2185" y1="128.314" x2="130.174" y2="131.39" gradientUnits="userSpaceOnUse">
<stop stop-color="#2CEBC7"/>
<stop offset="0.348958" stop-color="#4ABDCC" stop-opacity="0.2"/>
<stop offset="0.65625" stop-color="#8267D5" stop-opacity="0.1"/>
</linearGradient>
<linearGradient id="paint6_linear_2166_4362" x1="84.7826" y1="129.586" x2="131.424" y2="132.674" gradientUnits="userSpaceOnUse">
<stop stop-color="#2CEBC7"/>
<stop offset="0.348958" stop-color="#4ABDCC" stop-opacity="0.2"/>
<stop offset="0.65625" stop-color="#8267D5" stop-opacity="0.1"/>
</linearGradient>
<linearGradient id="paint7_linear_2166_4362" x1="83.3368" y1="130.912" x2="132.766" y2="134.051" gradientUnits="userSpaceOnUse">
<stop stop-color="#2CEBC7"/>
<stop offset="0.348958" stop-color="#4ABDCC" stop-opacity="0.2"/>
<stop offset="0.65625" stop-color="#8267D5" stop-opacity="0.1"/>
</linearGradient>
<linearGradient id="paint8_linear_2166_4362" x1="81.9639" y1="132.267" x2="134.161" y2="135.388" gradientUnits="userSpaceOnUse">
<stop stop-color="#2CEBC7"/>
<stop offset="0.348958" stop-color="#4ABDCC" stop-opacity="0.2"/>
<stop offset="0.65625" stop-color="#8267D5" stop-opacity="0.1"/>
</linearGradient>
<linearGradient id="paint9_linear_2166_4362" x1="80.5059" y1="133.84" x2="135.561" y2="136.986" gradientUnits="userSpaceOnUse">
<stop stop-color="#2CEBC7"/>
<stop offset="0.348958" stop-color="#4ABDCC" stop-opacity="0.2"/>
<stop offset="0.65625" stop-color="#8267D5" stop-opacity="0.1"/>
</linearGradient>
<linearGradient id="paint10_linear_2166_4362" x1="78.9941" y1="135.329" x2="137.306" y2="138.204" gradientUnits="userSpaceOnUse">
<stop stop-color="#2CEBC7"/>
<stop offset="0.348958" stop-color="#4ABDCC" stop-opacity="0.2"/>
<stop offset="0.65625" stop-color="#8267D5" stop-opacity="0.1"/>
</linearGradient>
<linearGradient id="paint11_linear_2166_4362" x1="77.3966" y1="136.99" x2="138.947" y2="139.512" gradientUnits="userSpaceOnUse">
<stop stop-color="#2CEBC7"/>
<stop offset="0.348958" stop-color="#4ABDCC" stop-opacity="0.2"/>
<stop offset="0.65625" stop-color="#8267D5" stop-opacity="0.1"/>
</linearGradient>
<linearGradient id="paint12_linear_2166_4362" x1="75.7747" y1="138.69" x2="140.663" y2="140.869" gradientUnits="userSpaceOnUse">
<stop stop-color="#2CEBC7"/>
<stop offset="0.348958" stop-color="#4ABDCC" stop-opacity="0.2"/>
<stop offset="0.65625" stop-color="#8267D5" stop-opacity="0.1"/>
</linearGradient>
<linearGradient id="paint13_linear_2166_4362" x1="74.2544" y1="140.479" x2="142.528" y2="142.276" gradientUnits="userSpaceOnUse">
<stop stop-color="#2CEBC7"/>
<stop offset="0.348958" stop-color="#4ABDCC" stop-opacity="0.2"/>
<stop offset="0.65625" stop-color="#8267D5" stop-opacity="0.1"/>
</linearGradient>
<linearGradient id="paint14_linear_2166_4362" x1="72.6223" y1="142.416" x2="144.696" y2="143.495" gradientUnits="userSpaceOnUse">
<stop stop-color="#2CEBC7"/>
<stop offset="0.348958" stop-color="#4ABDCC" stop-opacity="0.2"/>
<stop offset="0.65625" stop-color="#8267D5" stop-opacity="0.1"/>
</linearGradient>
<linearGradient id="paint15_linear_2166_4362" x1="70.9415" y1="144.327" x2="147.119" y2="144.227" gradientUnits="userSpaceOnUse">
<stop stop-color="#2CEBC7"/>
<stop offset="0.348958" stop-color="#4ABDCC" stop-opacity="0.2"/>
<stop offset="0.65625" stop-color="#8267D5" stop-opacity="0.1"/>
</linearGradient>
<linearGradient id="paint16_linear_2166_4362" x1="69.3444" y1="146.299" x2="149.667" y2="144.945" gradientUnits="userSpaceOnUse">
<stop stop-color="#2CEBC7"/>
<stop offset="0.348958" stop-color="#4ABDCC" stop-opacity="0.2"/>
<stop offset="0.65625" stop-color="#8267D5" stop-opacity="0.1"/>
</linearGradient>
<linearGradient id="paint17_linear_2166_4362" x1="67.7078" y1="148.394" x2="152.205" y2="145.709" gradientUnits="userSpaceOnUse">
<stop stop-color="#2CEBC7"/>
<stop offset="0.348958" stop-color="#4ABDCC" stop-opacity="0.2"/>
<stop offset="0.65625" stop-color="#8267D5" stop-opacity="0.1"/>
</linearGradient>
<linearGradient id="paint18_linear_2166_4362" x1="65.9606" y1="150.643" x2="155.014" y2="146.233" gradientUnits="userSpaceOnUse">
<stop stop-color="#2CEBC7"/>
<stop offset="0.348958" stop-color="#4ABDCC" stop-opacity="0.2"/>
<stop offset="0.65625" stop-color="#8267D5" stop-opacity="0.1"/>
</linearGradient>
<linearGradient id="paint19_linear_2166_4362" x1="64.384" y1="152.84" x2="157.907" y2="146.507" gradientUnits="userSpaceOnUse">
<stop stop-color="#2CEBC7"/>
<stop offset="0.348958" stop-color="#4ABDCC" stop-opacity="0.2"/>
<stop offset="0.65625" stop-color="#8267D5" stop-opacity="0.1"/>
</linearGradient>
<linearGradient id="paint20_linear_2166_4362" x1="62.6538" y1="155.088" x2="161.264" y2="146.035" gradientUnits="userSpaceOnUse">
<stop stop-color="#2CEBC7"/>
<stop offset="0.348958" stop-color="#4ABDCC" stop-opacity="0.2"/>
<stop offset="0.65625" stop-color="#8267D5" stop-opacity="0.1"/>
</linearGradient>
<linearGradient id="paint21_linear_2166_4362" x1="61.0747" y1="157.509" x2="164.43" y2="145.945" gradientUnits="userSpaceOnUse">
<stop stop-color="#2CEBC7"/>
<stop offset="0.348958" stop-color="#4ABDCC" stop-opacity="0.2"/>
<stop offset="0.65625" stop-color="#8267D5" stop-opacity="0.1"/>
</linearGradient>
<linearGradient id="paint22_linear_2166_4362" x1="59.4308" y1="159.835" x2="167.946" y2="144.84" gradientUnits="userSpaceOnUse">
<stop stop-color="#2CEBC7"/>
<stop offset="0.348958" stop-color="#4ABDCC" stop-opacity="0.2"/>
<stop offset="0.65625" stop-color="#8267D5" stop-opacity="0.1"/>
</linearGradient>
<linearGradient id="paint23_linear_2166_4362" x1="57.8516" y1="162.364" x2="171.692" y2="143.445" gradientUnits="userSpaceOnUse">
<stop stop-color="#2CEBC7"/>
<stop offset="0.348958" stop-color="#4ABDCC" stop-opacity="0.2"/>
<stop offset="0.65625" stop-color="#8267D5" stop-opacity="0.1"/>
</linearGradient>
<linearGradient id="paint24_linear_2166_4362" x1="56.3005" y1="164.848" x2="175.229" y2="141.773" gradientUnits="userSpaceOnUse">
<stop stop-color="#2CEBC7"/>
<stop offset="0.348958" stop-color="#4ABDCC" stop-opacity="0.2"/>
<stop offset="0.65625" stop-color="#8267D5" stop-opacity="0.1"/>
</linearGradient>
<linearGradient id="paint25_linear_2166_4362" x1="54.7678" y1="167.31" x2="179.059" y2="139.188" gradientUnits="userSpaceOnUse">
<stop stop-color="#2CEBC7"/>
<stop offset="0.348958" stop-color="#4ABDCC" stop-opacity="0.2"/>
<stop offset="0.65625" stop-color="#8267D5" stop-opacity="0.1"/>
</linearGradient>
<linearGradient id="paint26_linear_2166_4362" x1="53.3007" y1="169.885" x2="182.795" y2="136.156" gradientUnits="userSpaceOnUse">
<stop stop-color="#2CEBC7"/>
<stop offset="0.348958" stop-color="#4ABDCC" stop-opacity="0.2"/>
<stop offset="0.65625" stop-color="#8267D5" stop-opacity="0.1"/>
</linearGradient>
<linearGradient id="paint27_linear_2166_4362" x1="51.8215" y1="172.491" x2="186.5" y2="132.283" gradientUnits="userSpaceOnUse">
<stop stop-color="#2CEBC7"/>
<stop offset="0.348958" stop-color="#4ABDCC" stop-opacity="0.2"/>
<stop offset="0.65625" stop-color="#8267D5" stop-opacity="0.1"/>
</linearGradient>
<linearGradient id="paint28_linear_2166_4362" x1="50.5055" y1="175.011" x2="189.851" y2="128.107" gradientUnits="userSpaceOnUse">
<stop stop-color="#2CEBC7"/>
<stop offset="0.348958" stop-color="#4ABDCC" stop-opacity="0.2"/>
<stop offset="0.65625" stop-color="#8267D5" stop-opacity="0.1"/>
</linearGradient>
<linearGradient id="paint29_linear_2166_4362" x1="49.1295" y1="177.548" x2="193.033" y2="122.825" gradientUnits="userSpaceOnUse">
<stop stop-color="#2CEBC7"/>
<stop offset="0.348958" stop-color="#4ABDCC" stop-opacity="0.2"/>
<stop offset="0.65625" stop-color="#8267D5" stop-opacity="0.1"/>
</linearGradient>
<linearGradient id="paint30_linear_2166_4362" x1="47.8679" y1="180.049" x2="195.907" y2="116.774" gradientUnits="userSpaceOnUse">
<stop stop-color="#2CEBC7"/>
<stop offset="0.348958" stop-color="#4ABDCC" stop-opacity="0.2"/>
<stop offset="0.65625" stop-color="#8267D5" stop-opacity="0.1"/>
</linearGradient>
<linearGradient id="paint31_linear_2166_4362" x1="46.691" y1="182.607" x2="198.289" y2="110.437" gradientUnits="userSpaceOnUse">
<stop stop-color="#2CEBC7"/>
<stop offset="0.348958" stop-color="#4ABDCC" stop-opacity="0.2"/>
<stop offset="0.65625" stop-color="#8267D5" stop-opacity="0.1"/>
</linearGradient>
<linearGradient id="paint32_linear_2166_4362" x1="45.4878" y1="185.009" x2="199.876" y2="102.816" gradientUnits="userSpaceOnUse">
<stop stop-color="#2CEBC7"/>
<stop offset="0.348958" stop-color="#4ABDCC" stop-opacity="0.2"/>
<stop offset="0.65625" stop-color="#8267D5" stop-opacity="0.1"/>
</linearGradient>
<linearGradient id="paint33_linear_2166_4362" x1="44.3981" y1="187.48" x2="200.835" y2="95.1403" gradientUnits="userSpaceOnUse">
<stop stop-color="#2CEBC7"/>
<stop offset="0.348958" stop-color="#4ABDCC" stop-opacity="0.2"/>
<stop offset="0.65625" stop-color="#8267D5" stop-opacity="0.1"/>
</linearGradient>
<linearGradient id="paint34_linear_2166_4362" x1="43.2092" y1="189.808" x2="200.768" y2="86.5491" gradientUnits="userSpaceOnUse">
<stop stop-color="#2CEBC7"/>
<stop offset="0.348958" stop-color="#4ABDCC" stop-opacity="0.2"/>
<stop offset="0.65625" stop-color="#8267D5" stop-opacity="0.1"/>
</linearGradient>
<linearGradient id="paint35_linear_2166_4362" x1="42.13" y1="192.123" x2="199.815" y2="77.4382" gradientUnits="userSpaceOnUse">
<stop stop-color="#2CEBC7"/>
<stop offset="0.348958" stop-color="#4ABDCC" stop-opacity="0.2"/>
<stop offset="0.65625" stop-color="#8267D5" stop-opacity="0.1"/>
</linearGradient>
<linearGradient id="paint36_linear_2166_4362" x1="41.0759" y1="194.274" x2="197.725" y2="68.0719" gradientUnits="userSpaceOnUse">
<stop stop-color="#2CEBC7"/>
<stop offset="0.348958" stop-color="#4ABDCC" stop-opacity="0.2"/>
<stop offset="0.65625" stop-color="#8267D5" stop-opacity="0.1"/>
</linearGradient>
<linearGradient id="paint37_linear_2166_4362" x1="39.9293" y1="196.349" x2="194.388" y2="58.3865" gradientUnits="userSpaceOnUse">
<stop stop-color="#2CEBC7"/>
<stop offset="0.348958" stop-color="#4ABDCC" stop-opacity="0.2"/>
<stop offset="0.65625" stop-color="#8267D5" stop-opacity="0.1"/>
</linearGradient>
<linearGradient id="paint38_linear_2166_4362" x1="38.7091" y1="198.356" x2="189.756" y2="48.8301" gradientUnits="userSpaceOnUse">
<stop stop-color="#2CEBC7"/>
<stop offset="0.348958" stop-color="#4ABDCC" stop-opacity="0.2"/>
<stop offset="0.65625" stop-color="#8267D5" stop-opacity="0.1"/>
</linearGradient>
<linearGradient id="paint39_linear_2166_4362" x1="37.3873" y1="200.274" x2="183.711" y2="39.2322" gradientUnits="userSpaceOnUse">
<stop stop-color="#2CEBC7"/>
<stop offset="0.348958" stop-color="#4ABDCC" stop-opacity="0.2"/>
<stop offset="0.65625" stop-color="#8267D5" stop-opacity="0.1"/>
</linearGradient>
<linearGradient id="paint40_linear_2166_4362" x1="35.978" y1="202.043" x2="176.426" y2="30.0071" gradientUnits="userSpaceOnUse">
<stop stop-color="#2CEBC7"/>
<stop offset="0.348958" stop-color="#4ABDCC" stop-opacity="0.2"/>
<stop offset="0.65625" stop-color="#8267D5" stop-opacity="0.1"/>
</linearGradient>
<linearGradient id="paint41_linear_2166_4362" x1="34.3414" y1="203.774" x2="167.715" y2="21.2274" gradientUnits="userSpaceOnUse">
<stop stop-color="#2CEBC7"/>
<stop offset="0.348958" stop-color="#4ABDCC" stop-opacity="0.2"/>
<stop offset="0.65625" stop-color="#8267D5" stop-opacity="0.1"/>
</linearGradient>
<linearGradient id="paint42_linear_2166_4362" x1="32.439" y1="205.391" x2="157.668" y2="13.0341" gradientUnits="userSpaceOnUse">
<stop stop-color="#2CEBC7"/>
<stop offset="0.348958" stop-color="#4ABDCC" stop-opacity="0.2"/>
<stop offset="0.65625" stop-color="#8267D5" stop-opacity="0.1"/>
</linearGradient>
<linearGradient id="paint43_linear_2166_4362" x1="30.1239" y1="207.038" x2="146.324" y2="5.63057" gradientUnits="userSpaceOnUse">
<stop stop-color="#2CEBC7"/>
<stop offset="0.348958" stop-color="#4ABDCC" stop-opacity="0.2"/>
<stop offset="0.65625" stop-color="#8267D5" stop-opacity="0.1"/>
</linearGradient>
<linearGradient id="paint44_linear_2166_4362" x1="27.5072" y1="208.681" x2="133.872" y2="-0.845811" gradientUnits="userSpaceOnUse">
<stop stop-color="#2CEBC7"/>
<stop offset="0.348958" stop-color="#4ABDCC" stop-opacity="0.2"/>
<stop offset="0.65625" stop-color="#8267D5" stop-opacity="0.1"/>
</linearGradient>
<linearGradient id="paint45_linear_2166_4362" x1="24.3423" y1="210.344" x2="120.166" y2="-6.27322" gradientUnits="userSpaceOnUse">
<stop stop-color="#2CEBC7"/>
<stop offset="0.348958" stop-color="#4ABDCC" stop-opacity="0.2"/>
<stop offset="0.65625" stop-color="#8267D5" stop-opacity="0.1"/>
</linearGradient>
<linearGradient id="paint46_linear_2166_4362" x1="20.4882" y1="212.203" x2="105.315" y2="-10.6627" gradientUnits="userSpaceOnUse">
<stop stop-color="#2CEBC7"/>
<stop offset="0.348958" stop-color="#4ABDCC" stop-opacity="0.2"/>
<stop offset="0.65625" stop-color="#8267D5" stop-opacity="0.1"/>
</linearGradient>
<linearGradient id="paint47_linear_2166_4362" x1="16.0167" y1="214.188" x2="89.5238" y2="-13.9252" gradientUnits="userSpaceOnUse">
<stop stop-color="#2CEBC7"/>
<stop offset="0.348958" stop-color="#4ABDCC" stop-opacity="0.2"/>
<stop offset="0.65625" stop-color="#8267D5" stop-opacity="0.1"/>
</linearGradient>
<linearGradient id="paint48_linear_2166_4362" x1="10.6666" y1="216.517" x2="72.6152" y2="-15.8141" gradientUnits="userSpaceOnUse">
<stop stop-color="#2CEBC7"/>
<stop offset="0.348958" stop-color="#4ABDCC" stop-opacity="0.2"/>
<stop offset="0.65625" stop-color="#8267D5" stop-opacity="0.1"/>
</linearGradient>
<linearGradient id="paint49_linear_2166_4362" x1="4.5199" y1="219.21" x2="54.9345" y2="-16.6103" gradientUnits="userSpaceOnUse">
<stop stop-color="#2CEBC7"/>
<stop offset="0.348958" stop-color="#4ABDCC" stop-opacity="0.2"/>
<stop offset="0.65625" stop-color="#8267D5" stop-opacity="0.1"/>
</linearGradient>
<linearGradient id="paint50_linear_2166_4362" x1="1" y1="10.2866" x2="240.652" y2="40.8545" gradientUnits="userSpaceOnUse">
<stop stop-color="#2CEBC7"/>
<stop offset="0.348958" stop-color="#4ABDCC" stop-opacity="0.2"/>
<stop offset="0.65625" stop-color="#8267D5" stop-opacity="0.1"/>
</linearGradient>
</defs>
</svg>
